<svg width="40" height="41" viewBox="0 0 40 41" fill="none" xmlns="http://www.w3.org/2000/svg">
<path d="M23.0495 32.1667C22.8005 32.1676 22.5545 32.1126 22.3295 32.0059C22.1045 31.8992 21.9063 31.7434 21.7495 31.5501L13.6995 21.5501C13.4543 21.2518 13.3203 20.8778 13.3203 20.4917C13.3203 20.1057 13.4543 19.7316 13.6995 19.4334L22.0328 9.43339C22.3157 9.09302 22.7222 8.87898 23.1629 8.83835C23.6036 8.79772 24.0424 8.93382 24.3828 9.21672C24.7232 9.49962 24.9372 9.90614 24.9778 10.3468C25.0185 10.7876 24.8824 11.2264 24.5995 11.5667L17.1495 20.5001L24.3495 29.4334C24.5533 29.678 24.6827 29.9759 24.7225 30.2918C24.7623 30.6078 24.7108 30.9285 24.574 31.216C24.4373 31.5036 24.221 31.7459 23.9508 31.9144C23.6806 32.0829 23.3678 32.1704 23.0495 32.1667Z" fill="black"/>
</svg>
