<svg width="40" height="41" viewBox="0 0 40 41" fill="none" xmlns="http://www.w3.org/2000/svg">
<path d="M16.9505 8.83328C17.1995 8.83243 17.4456 8.88739 17.6705 8.9941C17.8955 9.10081 18.0937 9.25658 18.2505 9.44995L26.3005 19.4499C26.5457 19.7482 26.6797 20.1222 26.6797 20.5083C26.6797 20.8943 26.5457 21.2684 26.3005 21.5666L17.9672 31.5666C17.6843 31.907 17.2778 32.121 16.8371 32.1616C16.3964 32.2023 15.9576 32.0662 15.6172 31.7833C15.2768 31.5004 15.0628 31.0939 15.0222 30.6532C14.9815 30.2124 15.1176 29.7736 15.4005 29.4333L22.8505 20.4999L15.6505 11.5666C15.4467 11.322 15.3173 11.0241 15.2775 10.7082C15.2377 10.3922 15.2892 10.0715 15.426 9.78399C15.5627 9.49644 15.779 9.25409 16.0492 9.0856C16.3194 8.91712 16.6322 8.82956 16.9505 8.83328Z" fill="black"/>
</svg>
