<svg width="39" height="39" viewBox="0 0 39 39" fill="none" xmlns="http://www.w3.org/2000/svg">
<path d="M22.4347 19.4982L31.3843 10.5681C31.7763 10.1761 31.9964 9.64447 31.9964 9.09014C31.9964 8.5358 31.7763 8.00416 31.3843 7.61219C30.9924 7.22021 30.4609 7 29.9066 7C29.3524 7 28.8208 7.22021 28.4289 7.61219L19.5 16.5631L10.5711 7.61219C10.1792 7.22021 9.64765 7 9.09339 7C8.53913 7 8.00757 7.22021 7.61565 7.61219C7.22373 8.00416 7.00355 8.5358 7.00355 9.09014C7.00355 9.64447 7.22373 10.1761 7.61565 10.5681L16.5653 19.4982L7.61565 28.4284C7.42057 28.6219 7.26573 28.8521 7.16007 29.1058C7.0544 29.3594 7 29.6315 7 29.9063C7 30.1811 7.0544 30.4532 7.16007 30.7069C7.26573 30.9605 7.42057 31.1907 7.61565 31.3843C7.80914 31.5794 8.03933 31.7342 8.29296 31.8399C8.54659 31.9456 8.81863 32 9.09339 32C9.36815 32 9.64019 31.9456 9.89382 31.8399C10.1474 31.7342 10.3776 31.5794 10.5711 31.3843L19.5 22.4333L28.4289 31.3843C28.6224 31.5794 28.8526 31.7342 29.1062 31.8399C29.3598 31.9456 29.6319 32 29.9066 32C30.1814 32 30.4534 31.9456 30.707 31.8399C30.9607 31.7342 31.1909 31.5794 31.3843 31.3843C31.5794 31.1907 31.7343 30.9605 31.8399 30.7069C31.9456 30.4532 32 30.1811 32 29.9063C32 29.6315 31.9456 29.3594 31.8399 29.1058C31.7343 28.8521 31.5794 28.6219 31.3843 28.4284L22.4347 19.4982Z" fill="white"/>
</svg>
