<svg width="299" height="275" viewBox="0 0 299 275" fill="none" xmlns="http://www.w3.org/2000/svg">
<ellipse cx="4.04054" cy="4.04424" rx="4.04054" ry="4.04412" fill="#305BA9"/>
<ellipse cx="4.04054" cy="28.3089" rx="4.04054" ry="4.04412" fill="#305BA9"/>
<ellipse cx="4.04054" cy="52.5737" rx="4.04054" ry="4.04412" fill="#305BA9"/>
<ellipse cx="4.04054" cy="76.8384" rx="4.04054" ry="4.04412" fill="#305BA9"/>
<ellipse cx="4.04054" cy="101.103" rx="4.04054" ry="4.04412" fill="#305BA9"/>
<ellipse cx="4.04054" cy="125.368" rx="4.04054" ry="4.04411" fill="#305BA9"/>
<ellipse cx="4.04054" cy="149.632" rx="4.04054" ry="4.04411" fill="#305BA9"/>
<ellipse cx="4.04054" cy="173.897" rx="4.04054" ry="4.04412" fill="#305BA9"/>
<ellipse cx="4.04054" cy="198.162" rx="4.04054" ry="4.04412" fill="#305BA9"/>
<ellipse cx="4.04054" cy="222.427" rx="4.04054" ry="4.04411" fill="#305BA9"/>
<ellipse cx="4.04054" cy="246.691" rx="4.04054" ry="4.04411" fill="#305BA9"/>
<ellipse cx="4.04054" cy="270.956" rx="4.04054" ry="4.04411" fill="#305BA9"/>
<ellipse cx="28.2838" cy="4.04424" rx="4.04054" ry="4.04412" fill="#305BA9"/>
<ellipse cx="28.2838" cy="28.3089" rx="4.04054" ry="4.04412" fill="#305BA9"/>
<ellipse cx="28.2838" cy="52.5737" rx="4.04054" ry="4.04412" fill="#305BA9"/>
<ellipse cx="28.2838" cy="76.8384" rx="4.04054" ry="4.04412" fill="#305BA9"/>
<ellipse cx="28.2838" cy="101.103" rx="4.04054" ry="4.04412" fill="#305BA9"/>
<ellipse cx="28.2838" cy="125.368" rx="4.04054" ry="4.04411" fill="#305BA9"/>
<ellipse cx="28.2838" cy="149.632" rx="4.04054" ry="4.04411" fill="#305BA9"/>
<ellipse cx="28.2838" cy="173.897" rx="4.04054" ry="4.04412" fill="#305BA9"/>
<ellipse cx="28.2838" cy="198.162" rx="4.04054" ry="4.04412" fill="#305BA9"/>
<ellipse cx="28.2838" cy="222.427" rx="4.04054" ry="4.04411" fill="#305BA9"/>
<ellipse cx="28.2838" cy="246.691" rx="4.04054" ry="4.04411" fill="#305BA9"/>
<ellipse cx="28.2838" cy="270.956" rx="4.04054" ry="4.04411" fill="#305BA9"/>
<ellipse cx="52.527" cy="4.04424" rx="4.04054" ry="4.04412" fill="#305BA9"/>
<ellipse cx="52.527" cy="28.3089" rx="4.04054" ry="4.04412" fill="#305BA9"/>
<ellipse cx="52.527" cy="52.5737" rx="4.04054" ry="4.04412" fill="#305BA9"/>
<ellipse cx="52.527" cy="76.8384" rx="4.04054" ry="4.04412" fill="#305BA9"/>
<ellipse cx="52.527" cy="101.103" rx="4.04054" ry="4.04412" fill="#305BA9"/>
<ellipse cx="52.527" cy="125.368" rx="4.04054" ry="4.04411" fill="#305BA9"/>
<ellipse cx="52.527" cy="149.632" rx="4.04054" ry="4.04411" fill="#305BA9"/>
<ellipse cx="52.527" cy="173.897" rx="4.04054" ry="4.04412" fill="#305BA9"/>
<ellipse cx="52.527" cy="198.162" rx="4.04054" ry="4.04412" fill="#305BA9"/>
<ellipse cx="52.527" cy="222.427" rx="4.04054" ry="4.04411" fill="#305BA9"/>
<ellipse cx="52.527" cy="246.691" rx="4.04054" ry="4.04411" fill="#305BA9"/>
<ellipse cx="52.527" cy="270.956" rx="4.04054" ry="4.04411" fill="#305BA9"/>
<ellipse cx="76.7703" cy="4.04424" rx="4.04054" ry="4.04412" fill="#305BA9"/>
<ellipse cx="76.7703" cy="28.3089" rx="4.04054" ry="4.04412" fill="#305BA9"/>
<ellipse cx="76.7703" cy="52.5737" rx="4.04054" ry="4.04412" fill="#305BA9"/>
<ellipse cx="76.7703" cy="76.8384" rx="4.04054" ry="4.04412" fill="#305BA9"/>
<ellipse cx="76.7703" cy="101.103" rx="4.04054" ry="4.04412" fill="#305BA9"/>
<ellipse cx="76.7703" cy="125.368" rx="4.04054" ry="4.04411" fill="#305BA9"/>
<ellipse cx="76.7703" cy="149.632" rx="4.04054" ry="4.04411" fill="#305BA9"/>
<ellipse cx="76.7703" cy="173.897" rx="4.04054" ry="4.04412" fill="#305BA9"/>
<ellipse cx="76.7703" cy="198.162" rx="4.04054" ry="4.04412" fill="#305BA9"/>
<ellipse cx="76.7703" cy="222.427" rx="4.04054" ry="4.04411" fill="#305BA9"/>
<ellipse cx="76.7703" cy="246.691" rx="4.04054" ry="4.04411" fill="#305BA9"/>
<ellipse cx="76.7703" cy="270.956" rx="4.04054" ry="4.04411" fill="#305BA9"/>
<ellipse cx="101.014" cy="4.04424" rx="4.04054" ry="4.04412" fill="#305BA9"/>
<ellipse cx="101.014" cy="28.3089" rx="4.04054" ry="4.04412" fill="#305BA9"/>
<ellipse cx="101.014" cy="52.5737" rx="4.04054" ry="4.04412" fill="#305BA9"/>
<ellipse cx="101.014" cy="76.8384" rx="4.04054" ry="4.04412" fill="#305BA9"/>
<ellipse cx="101.014" cy="101.103" rx="4.04054" ry="4.04412" fill="#305BA9"/>
<ellipse cx="101.014" cy="125.368" rx="4.04054" ry="4.04411" fill="#305BA9"/>
<ellipse cx="101.014" cy="149.632" rx="4.04054" ry="4.04411" fill="#305BA9"/>
<ellipse cx="101.014" cy="173.897" rx="4.04054" ry="4.04412" fill="#305BA9"/>
<ellipse cx="101.014" cy="198.162" rx="4.04054" ry="4.04412" fill="#305BA9"/>
<ellipse cx="101.014" cy="222.427" rx="4.04054" ry="4.04411" fill="#305BA9"/>
<ellipse cx="101.014" cy="246.691" rx="4.04054" ry="4.04411" fill="#305BA9"/>
<ellipse cx="101.014" cy="270.956" rx="4.04054" ry="4.04411" fill="#305BA9"/>
<ellipse cx="125.257" cy="4.04424" rx="4.04054" ry="4.04412" fill="#305BA9"/>
<ellipse cx="125.257" cy="28.3089" rx="4.04054" ry="4.04412" fill="#305BA9"/>
<ellipse cx="125.257" cy="52.5737" rx="4.04054" ry="4.04412" fill="#305BA9"/>
<ellipse cx="125.257" cy="76.8384" rx="4.04054" ry="4.04412" fill="#305BA9"/>
<ellipse cx="125.257" cy="101.103" rx="4.04054" ry="4.04412" fill="#305BA9"/>
<ellipse cx="125.257" cy="125.368" rx="4.04054" ry="4.04411" fill="#305BA9"/>
<ellipse cx="125.257" cy="149.632" rx="4.04054" ry="4.04411" fill="#305BA9"/>
<ellipse cx="125.257" cy="173.897" rx="4.04054" ry="4.04412" fill="#305BA9"/>
<ellipse cx="125.257" cy="198.162" rx="4.04054" ry="4.04412" fill="#305BA9"/>
<ellipse cx="125.257" cy="222.427" rx="4.04054" ry="4.04411" fill="#305BA9"/>
<ellipse cx="125.257" cy="246.691" rx="4.04054" ry="4.04411" fill="#305BA9"/>
<ellipse cx="125.257" cy="270.956" rx="4.04054" ry="4.04411" fill="#305BA9"/>
<ellipse cx="149.5" cy="4.04424" rx="4.04054" ry="4.04412" fill="#305BA9"/>
<ellipse cx="149.5" cy="28.3089" rx="4.04054" ry="4.04412" fill="#305BA9"/>
<ellipse cx="149.5" cy="52.5737" rx="4.04054" ry="4.04412" fill="#305BA9"/>
<ellipse cx="149.5" cy="76.8384" rx="4.04054" ry="4.04412" fill="#305BA9"/>
<ellipse cx="149.5" cy="101.103" rx="4.04054" ry="4.04412" fill="#305BA9"/>
<ellipse cx="149.5" cy="125.368" rx="4.04054" ry="4.04411" fill="#305BA9"/>
<ellipse cx="149.5" cy="149.632" rx="4.04054" ry="4.04411" fill="#305BA9"/>
<ellipse cx="149.5" cy="173.897" rx="4.04054" ry="4.04412" fill="#305BA9"/>
<ellipse cx="149.5" cy="198.162" rx="4.04054" ry="4.04412" fill="#305BA9"/>
<ellipse cx="149.5" cy="222.427" rx="4.04054" ry="4.04411" fill="#305BA9"/>
<ellipse cx="149.5" cy="246.691" rx="4.04054" ry="4.04411" fill="#305BA9"/>
<ellipse cx="149.5" cy="270.956" rx="4.04054" ry="4.04411" fill="#305BA9"/>
<ellipse cx="173.743" cy="4.04424" rx="4.04054" ry="4.04412" fill="#305BA9"/>
<ellipse cx="197.986" cy="4.04424" rx="4.04053" ry="4.04412" fill="#305BA9"/>
<ellipse cx="222.23" cy="4.04424" rx="4.04053" ry="4.04412" fill="#305BA9"/>
<ellipse cx="246.473" cy="4.04424" rx="4.04054" ry="4.04412" fill="#305BA9"/>
<ellipse cx="270.716" cy="4.04424" rx="4.04053" ry="4.04412" fill="#305BA9"/>
<ellipse cx="294.959" cy="4.04424" rx="4.04054" ry="4.04412" fill="#305BA9"/>
<ellipse cx="173.743" cy="28.3089" rx="4.04054" ry="4.04412" fill="#305BA9"/>
<ellipse cx="197.986" cy="28.3089" rx="4.04053" ry="4.04412" fill="#305BA9"/>
<ellipse cx="222.23" cy="28.3089" rx="4.04053" ry="4.04412" fill="#305BA9"/>
<ellipse cx="246.473" cy="28.3089" rx="4.04054" ry="4.04412" fill="#305BA9"/>
<ellipse cx="270.716" cy="28.3089" rx="4.04053" ry="4.04412" fill="#305BA9"/>
<ellipse cx="294.959" cy="28.3089" rx="4.04054" ry="4.04412" fill="#305BA9"/>
<ellipse cx="173.743" cy="52.5737" rx="4.04054" ry="4.04412" fill="#305BA9"/>
<ellipse cx="197.986" cy="52.5737" rx="4.04053" ry="4.04412" fill="#305BA9"/>
<ellipse cx="222.23" cy="52.5737" rx="4.04053" ry="4.04412" fill="#305BA9"/>
<ellipse cx="246.473" cy="52.5737" rx="4.04054" ry="4.04412" fill="#305BA9"/>
<ellipse cx="270.716" cy="52.5737" rx="4.04053" ry="4.04412" fill="#305BA9"/>
<ellipse cx="294.959" cy="52.5737" rx="4.04054" ry="4.04412" fill="#305BA9"/>
<ellipse cx="173.743" cy="76.8384" rx="4.04054" ry="4.04412" fill="#305BA9"/>
<ellipse cx="197.986" cy="76.8384" rx="4.04053" ry="4.04412" fill="#305BA9"/>
<ellipse cx="222.23" cy="76.8384" rx="4.04053" ry="4.04412" fill="#305BA9"/>
<ellipse cx="246.473" cy="76.8384" rx="4.04054" ry="4.04412" fill="#305BA9"/>
<ellipse cx="270.716" cy="76.8384" rx="4.04053" ry="4.04412" fill="#305BA9"/>
<ellipse cx="294.959" cy="76.8384" rx="4.04054" ry="4.04412" fill="#305BA9"/>
<ellipse cx="173.743" cy="101.103" rx="4.04054" ry="4.04412" fill="#305BA9"/>
<ellipse cx="197.986" cy="101.103" rx="4.04053" ry="4.04412" fill="#305BA9"/>
<ellipse cx="222.23" cy="101.103" rx="4.04053" ry="4.04412" fill="#305BA9"/>
<ellipse cx="246.473" cy="101.103" rx="4.04054" ry="4.04412" fill="#305BA9"/>
<ellipse cx="270.716" cy="101.103" rx="4.04053" ry="4.04412" fill="#305BA9"/>
<ellipse cx="294.959" cy="101.103" rx="4.04054" ry="4.04412" fill="#305BA9"/>
<ellipse cx="173.743" cy="125.368" rx="4.04054" ry="4.04411" fill="#305BA9"/>
<ellipse cx="197.986" cy="125.368" rx="4.04053" ry="4.04411" fill="#305BA9"/>
<ellipse cx="222.23" cy="125.368" rx="4.04053" ry="4.04411" fill="#305BA9"/>
<ellipse cx="246.473" cy="125.368" rx="4.04054" ry="4.04411" fill="#305BA9"/>
<ellipse cx="270.716" cy="125.368" rx="4.04053" ry="4.04411" fill="#305BA9"/>
<ellipse cx="294.959" cy="125.368" rx="4.04054" ry="4.04411" fill="#305BA9"/>
<ellipse cx="173.743" cy="149.632" rx="4.04054" ry="4.04411" fill="#305BA9"/>
<ellipse cx="197.986" cy="149.632" rx="4.04053" ry="4.04411" fill="#305BA9"/>
<ellipse cx="222.23" cy="149.632" rx="4.04053" ry="4.04411" fill="#305BA9"/>
<ellipse cx="246.473" cy="149.632" rx="4.04054" ry="4.04411" fill="#305BA9"/>
<ellipse cx="270.716" cy="149.632" rx="4.04053" ry="4.04411" fill="#305BA9"/>
<ellipse cx="294.959" cy="149.632" rx="4.04054" ry="4.04411" fill="#305BA9"/>
<ellipse cx="173.743" cy="173.897" rx="4.04054" ry="4.04412" fill="#305BA9"/>
<ellipse cx="197.986" cy="173.897" rx="4.04053" ry="4.04412" fill="#305BA9"/>
<ellipse cx="222.23" cy="173.897" rx="4.04053" ry="4.04412" fill="#305BA9"/>
<ellipse cx="246.473" cy="173.897" rx="4.04054" ry="4.04412" fill="#305BA9"/>
<ellipse cx="270.716" cy="173.897" rx="4.04053" ry="4.04412" fill="#305BA9"/>
<ellipse cx="294.959" cy="173.897" rx="4.04054" ry="4.04412" fill="#305BA9"/>
<ellipse cx="173.743" cy="198.162" rx="4.04054" ry="4.04412" fill="#305BA9"/>
<ellipse cx="197.986" cy="198.162" rx="4.04053" ry="4.04412" fill="#305BA9"/>
<ellipse cx="222.23" cy="198.162" rx="4.04053" ry="4.04412" fill="#305BA9"/>
<ellipse cx="246.473" cy="198.162" rx="4.04054" ry="4.04412" fill="#305BA9"/>
<ellipse cx="270.716" cy="198.162" rx="4.04053" ry="4.04412" fill="#305BA9"/>
<ellipse cx="294.959" cy="198.162" rx="4.04054" ry="4.04412" fill="#305BA9"/>
<ellipse cx="173.743" cy="222.427" rx="4.04054" ry="4.04411" fill="#305BA9"/>
<ellipse cx="197.986" cy="222.427" rx="4.04053" ry="4.04411" fill="#305BA9"/>
<ellipse cx="222.23" cy="222.427" rx="4.04053" ry="4.04411" fill="#305BA9"/>
<ellipse cx="246.473" cy="222.427" rx="4.04054" ry="4.04411" fill="#305BA9"/>
<ellipse cx="270.716" cy="222.427" rx="4.04053" ry="4.04411" fill="#305BA9"/>
<ellipse cx="294.959" cy="222.427" rx="4.04054" ry="4.04411" fill="#305BA9"/>
<ellipse cx="173.743" cy="246.691" rx="4.04054" ry="4.04411" fill="#305BA9"/>
<ellipse cx="197.986" cy="246.691" rx="4.04053" ry="4.04411" fill="#305BA9"/>
<ellipse cx="222.23" cy="246.691" rx="4.04053" ry="4.04411" fill="#305BA9"/>
<ellipse cx="246.473" cy="246.691" rx="4.04054" ry="4.04411" fill="#305BA9"/>
<ellipse cx="270.716" cy="246.691" rx="4.04053" ry="4.04411" fill="#305BA9"/>
<ellipse cx="294.959" cy="246.691" rx="4.04054" ry="4.04411" fill="#305BA9"/>
<ellipse cx="173.743" cy="270.956" rx="4.04054" ry="4.04411" fill="#305BA9"/>
<ellipse cx="197.986" cy="270.956" rx="4.04053" ry="4.04411" fill="#305BA9"/>
<ellipse cx="222.23" cy="270.956" rx="4.04053" ry="4.04411" fill="#305BA9"/>
<ellipse cx="246.473" cy="270.956" rx="4.04054" ry="4.04411" fill="#305BA9"/>
<ellipse cx="270.716" cy="270.956" rx="4.04053" ry="4.04411" fill="#305BA9"/>
<ellipse cx="294.959" cy="270.956" rx="4.04054" ry="4.04411" fill="#305BA9"/>
</svg>
