<svg width="161" height="42" viewBox="0 0 161 42" fill="none" xmlns="http://www.w3.org/2000/svg">
<path d="M56.1 13.1V14.3C56.1 14.5 55.9999 14.6 55.7999 14.6H53.6V26.8C53.6 27 53.4999 27.1 53.2999 27.1H52C51.8 27.1 51.7 27 51.7 26.8V14.6H49.5C49.3 14.6 49.2 14.5 49.2 14.3V13.1C49.2 12.9 49.3 12.8 49.5 12.8H55.7C56 12.9 56.1 13 56.1 13.1Z" fill="white"/>
<path d="M56.6003 23.4999V16.4999C56.6003 14.3999 58.0003 12.8999 60.1003 12.8999H62.1003C62.3003 12.8999 62.4003 12.9999 62.4003 13.1999V14.3999C62.4003 14.5999 62.3003 14.6999 62.1003 14.6999H60.1003C59.0003 14.6999 58.3003 15.4999 58.3003 16.6999V19.2999H61.5003C61.7003 19.2999 61.8003 19.3999 61.8003 19.5999V20.6999C61.8003 20.8999 61.7003 20.9999 61.5003 20.9999H58.3003V23.6999C58.3003 24.8999 59.0003 25.6999 60.1003 25.6999H62.1003C62.3003 25.6999 62.4003 25.7999 62.4003 25.9999V27.1999C62.4003 27.3999 62.3003 27.4999 62.1003 27.4999H60.0003C58.0003 27.0999 56.6003 25.5999 56.6003 23.4999Z" fill="white"/>
<path d="M69.1999 12.9H70.4999C70.6999 12.9 70.7999 13 70.7999 13.2V26.8C70.7999 27 70.6999 27.1 70.4999 27.1H69.1999C68.9999 27.1 68.8999 27 68.8999 26.8V20.7H65.7999V26.8C65.7999 27 65.6999 27.1 65.4999 27.1H64.1999C63.9999 27.1 63.8999 27 63.8999 26.8V13.1C63.8999 12.9 63.9999 12.8 64.1999 12.8H65.4999C65.6999 12.8 65.7999 12.9 65.7999 13.1V19H68.8999V13.1C68.8999 13 68.9999 12.9 69.1999 12.9Z" fill="white"/>
<path d="M72.8999 26.7V16.4C72.8999 14.2 74.2999 12.7 76.3999 12.7C78.4999 12.7 79.8999 14.2 79.8999 16.4V26.8C79.8999 27 79.7999 27.1 79.5999 27.1H78.2999C78.0999 27.1 77.9999 27 77.9999 26.8V16.3C77.9999 15.1 77.3999 14.4 76.3999 14.4C75.3999 14.4 74.7999 15.2 74.7999 16.3V26.8C74.7999 27 74.6999 27.1 74.4999 27.1H73.0999C72.9999 27 72.8999 26.9 72.8999 26.7Z" fill="white"/>
<path d="M82.1999 12.8999H83.4999C83.6999 12.8999 83.7999 12.9999 83.7999 13.1999V26.7999C83.7999 26.9999 83.6999 27.0999 83.4999 27.0999H82.1999C81.9999 27.0999 81.8999 26.9999 81.8999 26.7999V13.0999C81.8999 12.9999 81.9999 12.8999 82.1999 12.8999Z" fill="white"/>
<path d="M86 26.7V13.1C86 12.9 86.1 12.8 86.3 12.8H87.6C87.8 12.8 87.9 12.9 87.9 13.1V19H89.5L91.2 13C91.2 12.9 91.4 12.8 91.5 12.8H92.8C93 12.8 93.1 12.9 93 13.1L91.1 19.5C92.3 20 92.9 21.2 92.9 22.8V26.8C92.9 27 92.8 27.1 92.6 27.1H91.3C91.1 27.1 91 27 91 26.8V22.8C91 21.6 90.4 20.8 89.3 20.8H87.8V26.8C87.8 27 87.7 27.1 87.5 27.1H86.2C86.1 27 86 26.9 86 26.7Z" fill="white"/>
<path d="M94.6003 26.7V16.4C94.6003 14.2 96.0003 12.7 98.1003 12.7C100.2 12.7 101.6 14.2 101.6 16.4V26.8C101.6 27 101.5 27.1 101.3 27.1H100C99.8003 27.1 99.7003 27 99.7003 26.8V22.3H96.4003V26.8C96.4003 27 96.3003 27.1 96.1003 27.1H94.8003C94.7003 27 94.6003 26.9 94.6003 26.7ZM99.7003 20.6V16.3C99.7003 15.1 99.1003 14.4 98.1003 14.4C97.1003 14.4 96.5003 15.1 96.5003 16.3V20.6H99.7003Z" fill="white"/>
<path d="M108.1 26.6V13.3C108.1 13 108.3 12.8 108.6 12.8H111.3C113.3 12.8 114.6 14.3 114.6 16.2V23.6C114.6 25.5 113.3 27.1 111.3 27.1H108.6C108.3 27.1 108.1 26.9 108.1 26.6ZM111.3 26.2C112.7 26.2 113.6 25.1 113.6 23.6V16.2C113.6 14.8 112.7 13.7 111.3 13.7H109.1V26.2H111.3Z" fill="white"/>
<path d="M117.6 12.9C117.7 12.9 117.8 13 117.8 13.1V23.7C117.8 25.3 118.7 26.4 120.1 26.4C121.5 26.4 122.4 25.3 122.4 23.7V13C122.4 12.9 122.5 12.8 122.6 12.8H123.2C123.3 12.8 123.4 12.9 123.4 13V23.6C123.4 25.7 122.1 27.2 120.1 27.2C118.1 27.2 116.8 25.7 116.8 23.6V13C116.8 12.9 116.9 12.8 117 12.8H117.6V12.9Z" fill="white"/>
<path d="M125.7 26.9V16.3C125.7 14.2 127 12.7 129 12.7C131 12.7 132.3 14.2 132.3 16.3V26.9C132.3 27 132.2 27.1 132.1 27.1H131.5C131.4 27.1 131.3 27 131.3 26.9V16.3C131.3 14.7 130.4 13.6 129 13.6C127.6 13.6 126.7 14.7 126.7 16.3V26.9C126.7 27 126.6 27.1 126.5 27.1H125.9C125.8 27 125.7 27 125.7 26.9Z" fill="white"/>
<path d="M137.1 26.9V22.4C135.5 22.2 134.3 20.8 134.3 19V13C134.3 12.9 134.4 12.8 134.5 12.8H135.1C135.2 12.8 135.3 12.9 135.3 13V19C135.3 20.5 136.3 21.6 137.6 21.6C138.9 21.6 139.9 20.5 139.9 19V13C139.9 12.9 140 12.8 140.1 12.8H140.7C140.8 12.8 140.9 12.9 140.9 13V19C140.9 20.8 139.7 22.2 138.1 22.4V26.9C138.1 27 138 27.1 137.9 27.1H137.3C137.2 27 137.1 27 137.1 26.9Z" fill="white"/>
<path d="M142.9 26.9V16.3C142.9 14.1 144.2 12.7 146.2 12.7C148.1 12.7 149.5 14.1 149.5 16.3V26.9C149.5 27 149.4 27.1 149.3 27.1H148.7C148.6 27.1 148.5 27 148.5 26.9V21.8H143.8V26.9C143.8 27 143.7 27.1 143.6 27.1H143.1C143 27 142.9 27 142.9 26.9ZM148.5 20.9V16.3C148.5 14.6 147.6 13.6 146.2 13.6C144.7 13.6 143.9 14.6 143.9 16.3V20.9H148.5Z" fill="white"/>
<path d="M151.4 23.6C151.4 23.5 151.5 23.4 151.6 23.4H152.2C152.3 23.4 152.4 23.5 152.4 23.6C152.5 25.3 153.3 26.4 154.8 26.4C156.3 26.4 157.1 25.5 157.1 24.1C157.1 20.5 151.5 19.9 151.5 15.9C151.5 14 152.8 12.8 154.7 12.8C156.5 12.8 157.8 14.2 157.9 16.4C157.9 16.5 157.8 16.6 157.7 16.6H157.1C157 16.6 156.9 16.5 156.9 16.4C156.8 14.6 156 13.7 154.7 13.7C153.3 13.7 152.5 14.5 152.5 15.9C152.5 19.3 158.1 19.9 158.1 24.1C158.1 26 156.8 27.3 154.8 27.3C152.7 27.2 151.4 25.7 151.4 23.6Z" fill="white"/>
<path d="M160.2 12.8999H160.8C160.9 12.8999 161 12.9999 161 13.0999V26.8999C161 26.9999 160.9 27.0999 160.8 27.0999H160.2C160.1 27.0999 160 26.9999 160 26.8999V12.9999C160.1 12.8999 160.1 12.8999 160.2 12.8999Z" fill="white"/>
<path d="M9.30011 37.4999L9.10011 37.3999C8.90011 37.2999 8.70011 37.2999 8.60011 37.4999C8.50011 37.6999 8.50011 37.8999 8.70011 37.9999L8.90011 38.0999C9.10011 38.1999 9.30011 38.1999 9.40011 37.9999C9.50011 37.8999 9.50011 37.6999 9.30011 37.4999Z" fill="white"/>
<path d="M3.60026 31.4001C3.50026 31.2001 3.30026 31.2001 3.10026 31.3001C2.90026 31.4001 2.90026 31.6001 3.00026 31.8001L3.10026 32.0001C3.10026 32.0001 3.10026 32.0001 3.20026 32.1001C3.30026 32.2001 3.50026 32.2001 3.60026 32.1001C3.80026 32.0001 3.80026 31.8001 3.70026 31.6001L3.60026 31.4001Z" fill="white"/>
<path d="M3.00006 30.3L2.90006 30.1C2.80006 29.9 2.60006 29.9 2.40006 30C2.20006 30.1 2.20006 30.3 2.30006 30.5L2.40006 30.7C2.40006 30.7 2.40006 30.8 2.50006 30.8C2.60006 30.9 2.80006 30.9 2.90006 30.9C3.00006 30.7 3.10006 30.5 3.00006 30.3Z" fill="white"/>
<path d="M0.700001 21.8999V21.6999C0.700001 21.4999 0.500001 21.3999 0.300001 21.3999C0.100001 21.3999 0 21.5999 0 21.7999V21.9999C0 22.0999 3.7998e-07 22.1999 0.1 22.1999C0.2 22.2999 0.3 22.2999 0.4 22.2999C0.6 22.1999 0.700001 22.0999 0.700001 21.8999Z" fill="white"/>
<path d="M2.29992 29L2.19992 28.8C2.09992 28.6 1.89992 28.5 1.69992 28.6C1.49992 28.7 1.39992 28.9 1.49992 29.1L1.59992 29.3C1.59992 29.3 1.59992 29.4 1.69992 29.4C1.79992 29.5 1.89992 29.5 2.09992 29.5C2.29992 29.3 2.39992 29.1 2.29992 29Z" fill="white"/>
<path d="M1.80002 27.6001L1.70002 27.4001C1.60002 27.2001 1.40002 27.1001 1.30002 27.2001C1.10002 27.3001 1.00002 27.5001 1.10002 27.6001L1.20002 27.8001C1.20002 27.9001 1.20002 27.9001 1.30002 27.9001C1.40002 28.0001 1.50002 28.0001 1.70002 28.0001C1.80002 28.0001 1.90002 27.8001 1.80002 27.6001Z" fill="white"/>
<path d="M1.10039 24.8V24.6C1.10039 24.4 0.900392 24.3 0.700392 24.3C0.500392 24.3 0.400391 24.5001 0.400391 24.7001V24.9C0.400391 25 0.400391 25 0.500391 25.1C0.600391 25.2 0.700392 25.2001 0.800392 25.2001C1.00039 25.1001 1.10039 25 1.10039 24.8Z" fill="white"/>
<path d="M0.79961 23.3V23.1C0.79961 22.9 0.599609 22.8 0.399609 22.8C0.199609 22.8 0.0996094 23.0001 0.0996094 23.2001V23.4C0.0996094 23.5 0.0996098 23.5 0.19961 23.6C0.29961 23.7 0.399609 23.7001 0.499609 23.7001C0.699609 23.7001 0.89961 23.5 0.79961 23.3Z" fill="white"/>
<path d="M1.39997 26.2V26C1.39997 25.8 1.19997 25.7 0.999972 25.7C0.799972 25.7 0.699973 25.9 0.799973 26.1V26.2999C0.799973 26.3999 0.799971 26.4 0.899971 26.5C0.999971 26.6 1.09997 26.6 1.19997 26.6C1.29997 26.6 1.39997 26.4 1.39997 26.2Z" fill="white"/>
<path d="M4.40006 32.5999C4.30006 32.4999 4.10006 32.3999 3.90006 32.4999C3.70006 32.5999 3.70006 32.7999 3.80006 32.9999L3.90006 33.1999C4.00006 33.2999 4.20006 33.2999 4.30006 33.1999C4.50006 33.0999 4.50006 32.8999 4.40006 32.6999V32.5999Z" fill="white"/>
<path d="M13.0996 39.7L12.8996 39.6C12.6996 39.5 12.4996 39.6 12.3996 39.8C12.2996 40 12.3996 40.2 12.5996 40.3L12.7996 40.4C12.9996 40.5 13.1996 40.4 13.2996 40.2C13.3996 40.1 13.2996 39.9 13.1996 39.8C13.1996 39.7 13.0996 39.7 13.0996 39.7Z" fill="white"/>
<path d="M13.1 1.6C12.8 1.7 12.7 1.9 12.8 2.1C12.8 2.1 12.7999 2.2 12.8999 2.2C12.9999 2.3 13.1 2.3 13.3 2.3H13.3999H13.5C13.7 2.2 13.6999 2 13.6999 1.9C13.4999 1.6 13.2 1.5 13.1 1.6Z" fill="white"/>
<path d="M9.10006 3.69994L8.90006 3.79994C8.70006 3.89994 8.70006 4.09994 8.80006 4.29994C8.90006 4.39994 9.10006 4.39994 9.20006 4.29994L9.30006 4.19994C9.50006 4.09994 9.50006 3.89994 9.40006 3.69994C9.50006 3.59994 9.30006 3.49994 9.10006 3.69994Z" fill="white"/>
<path d="M14.4996 40.2L14.2996 40.1C14.0996 40 13.8996 40.1 13.8996 40.3C13.7996 40.5 13.8996 40.7 14.0996 40.7L14.2996 40.8C14.4996 40.9 14.6996 40.8 14.6996 40.6C14.6996 40.5 14.6996 40.3 14.5996 40.2H14.4996Z" fill="white"/>
<path d="M11.8004 2.1001L11.6004 2.2001C11.4004 2.3001 11.4004 2.5001 11.4004 2.7001C11.4004 2.7001 11.4004 2.8001 11.5004 2.8001C11.6004 2.9001 11.8004 2.9001 11.9004 2.9001L12.1004 2.8001C12.3004 2.7001 12.3004 2.5001 12.3004 2.3001C12.1004 2.1001 11.9004 2.1001 11.8004 2.1001Z" fill="white"/>
<path d="M11.8 39.0001L11.6 38.9001C11.4 38.8001 11.2 38.9001 11.1 39.0001C11 39.2001 11.1 39.4001 11.2 39.5001L11.4 39.6001C11.6 39.7001 11.8 39.6001 11.9 39.5001C12 39.4001 12 39.2001 11.8 39.0001C11.8 39.1001 11.8 39.1001 11.8 39.0001Z" fill="white"/>
<path d="M10.5001 38.3L10.3001 38.2C10.1001 38.1 9.90006 38.1 9.80006 38.3C9.70006 38.5 9.70006 38.7 9.90006 38.8L10.1001 38.9C10.3001 39 10.5001 38.9 10.6001 38.8C10.7001 38.7 10.7001 38.5 10.5001 38.3C10.6001 38.4 10.5001 38.3 10.5001 38.3Z" fill="white"/>
<path d="M10.4 2.89991L10.3 2.99991C10.1 2.99991 10 3.29991 10.1 3.39991C10.1 3.39991 10.1 3.39991 10.2 3.49991C10.3 3.59991 10.5 3.59991 10.6 3.59991L10.8 3.49991C11 3.39991 11 3.19991 10.9 2.99991C10.8 2.79991 10.5 2.79991 10.4 2.89991Z" fill="white"/>
<path d="M2.29961 12.0999C2.49961 12.1999 2.69961 12.0999 2.79961 11.8999L2.89961 11.6999C2.99961 11.4999 2.89961 11.2999 2.69961 11.1999C2.49961 11.0999 2.29961 11.1999 2.19961 11.3999L2.09961 11.5999C2.09961 11.7999 2.09961 11.9999 2.29961 12.0999Z" fill="white"/>
<path d="M39.6 13L39.7 13.2C39.8 13.4 40 13.5 40.2 13.4C40.4 13.3 40.5 13.1 40.4 12.9L40.3 12.7C40.3 12.7 40.3 12.6 40.2 12.6C40.1 12.5 40 12.5 39.8 12.5C39.6 12.7 39.5 12.9 39.6 13Z" fill="white"/>
<path d="M40.1996 14.4L40.2996 14.6C40.3996 14.8 40.5996 14.9 40.6996 14.8C40.8996 14.7 40.9996 14.5 40.8996 14.4L40.7996 14.2C40.7996 14.1 40.7996 14.1 40.6996 14.1C40.5996 14 40.4996 14 40.2996 14C40.1996 14 40.0996 14.2 40.1996 14.4Z" fill="white"/>
<path d="M39.0004 11.7001L39.1004 11.9001C39.2004 12.1001 39.4004 12.1001 39.6004 12.0001C39.8004 11.9001 39.8004 11.7001 39.7004 11.5001L39.6004 11.3001C39.6004 11.3001 39.6004 11.2001 39.5004 11.2001C39.4004 11.1001 39.2004 11.1001 39.1004 11.1001C39.0004 11.3001 38.9004 11.5001 39.0004 11.7001Z" fill="white"/>
<path d="M40.6 15.7999V15.9999C40.6 16.1999 40.8 16.2999 41 16.2999C41.2 16.2999 41.3 16.0999 41.2 15.8999V15.6999C41.2 15.5999 41.2 15.5999 41.1 15.4999C41 15.3999 40.9 15.3999 40.8 15.3999C40.6 15.3999 40.5 15.5999 40.6 15.7999Z" fill="white"/>
<path d="M41.0996 18.7001V18.9C41.0996 19.1 41.2996 19.2001 41.4996 19.2001C41.6996 19.2001 41.7996 19 41.7996 18.8V18.6C41.7996 18.5 41.7996 18.5 41.6996 18.4C41.5996 18.3 41.4996 18.3 41.3996 18.3C41.1996 18.3 41.0996 18.5001 41.0996 18.7001Z" fill="white"/>
<path d="M40.9004 17.2001V17.4C40.9004 17.6 41.1004 17.7001 41.3004 17.7001C41.5004 17.7001 41.6004 17.5 41.6004 17.3V17.1C41.6004 17 41.6004 17 41.5004 16.9C41.4004 16.8 41.3004 16.8 41.2004 16.8C41.0004 16.9 40.9004 17.0001 40.9004 17.2001Z" fill="white"/>
<path d="M41.3 20.1V20.2999C41.3 20.4999 41.5 20.6 41.7 20.6C41.9 20.6 42 20.4 42 20.2V20C42 19.9 42 19.7999 41.9 19.7999C41.8 19.6999 41.7 19.7 41.6 19.7C41.4 19.8 41.2 19.9 41.3 20.1Z" fill="white"/>
<path d="M38.4001 10.6C38.5001 10.8 38.7001 10.8 38.9001 10.7C39.1001 10.6 39.1001 10.4 39.0001 10.2L38.9001 9.99995C38.9001 9.99995 38.9001 9.99995 38.8001 9.89995C38.7001 9.79995 38.5001 9.79995 38.4001 9.89995C38.2001 9.99995 38.2001 10.2 38.3001 10.4L38.4001 10.6Z" fill="white"/>
<path d="M2.99967 10.7999C3.19967 10.8999 3.39967 10.7999 3.49967 10.6999L3.59967 10.4999C3.69967 10.2999 3.59967 10.0999 3.49967 9.99992C3.29967 9.89992 3.09967 9.99992 2.99967 10.0999L2.89967 10.2999C2.79967 10.4999 2.79967 10.6999 2.99967 10.7999Z" fill="white"/>
<path d="M0.89995 16.2999C1.09995 16.2999 1.29995 16.1999 1.29995 15.9999V15.7999C1.29995 15.5999 1.19995 15.3999 1.09995 15.3999C0.899951 15.3999 0.699951 15.4999 0.699951 15.5999V15.7999C0.699951 15.8999 0.699952 15.9999 0.799952 16.0999C0.699952 16.2999 0.79995 16.2999 0.89995 16.2999Z" fill="white"/>
<path d="M0.600048 17.7999C0.800048 17.7999 1.00005 17.6999 1.00005 17.4999V17.2999C1.00005 17.0999 0.900048 16.8999 0.700048 16.8999C0.500048 16.8999 0.300049 16.9999 0.300049 17.1999V17.3999C0.300049 17.4999 0.300047 17.5999 0.400047 17.6999C0.400047 17.7999 0.500048 17.7999 0.600048 17.7999Z" fill="white"/>
<path d="M0.399609 19.2999C0.599609 19.2999 0.79961 19.1999 0.79961 18.9999V18.7999C0.79961 18.5999 0.699609 18.3999 0.499609 18.3999C0.299609 18.3999 0.0996094 18.4999 0.0996094 18.6999V18.8999C0.0996094 18.9999 0.0996098 19.0999 0.19961 19.1999C0.29961 19.1999 0.299609 19.2999 0.399609 19.2999Z" fill="white"/>
<path d="M1.2 14.9C1.4 15 1.6 14.9 1.6 14.7L1.7 14.5C1.8 14.3 1.7 14.1 1.5 14.1C1.3 14 1.1 14.1 1.1 14.3L1 14.5C1 14.6 1 14.8 1.1 14.9H1.2Z" fill="white"/>
<path d="M3.80045 9.59991C4.00045 9.69991 4.20045 9.69991 4.30045 9.49991L4.40045 9.39991C4.50045 9.19991 4.50045 8.99991 4.30045 8.89991C4.10045 8.79991 3.90045 8.79991 3.80045 8.99991L3.70045 9.19991C3.60045 9.19991 3.60045 9.39991 3.80045 9.59991C3.70045 9.49991 3.80045 9.59991 3.80045 9.59991Z" fill="white"/>
<path d="M0.300001 20.7999C0.500001 20.7999 0.700001 20.6999 0.700001 20.4999V20.2999C0.700001 20.0999 0.6 19.8999 0.4 19.8999C0.2 19.8999 0 19.9999 0 20.1999V20.3999C0 20.4999 3.7998e-07 20.5999 0.1 20.6999C0.2 20.6999 0.300001 20.7999 0.300001 20.7999Z" fill="white"/>
<path d="M14.6004 1L14.4004 1.1C14.2004 1.1 14.1004 1.3 14.2004 1.5C14.2004 1.6 14.2004 1.6 14.3004 1.6C14.4004 1.7 14.5004 1.7 14.7004 1.7L14.9004 1.6C15.1004 1.5 15.2004 1.3 15.1004 1.2C14.9004 1.1 14.7004 1 14.6004 1Z" fill="white"/>
<path d="M1.70041 13.5C1.90041 13.6 2.10041 13.5 2.20041 13.3L2.30041 13.1C2.40041 12.9 2.30041 12.7 2.10041 12.6C1.90041 12.5 1.70041 12.6 1.60041 12.8L1.50041 13C1.40041 13.1 1.50041 13.3 1.60041 13.4C1.60041 13.5 1.70041 13.5 1.70041 13.5Z" fill="white"/>
<path d="M39.7 29.9001C39.5 29.8001 39.3 29.9001 39.2 30.1001L39.1 30.2001C39 30.4001 39.1 30.6001 39.3 30.7001C39.5 30.8001 39.7 30.7001 39.8 30.5001L39.9 30.3001C39.9 30.2001 39.8 30.0001 39.7 29.9001Z" fill="white"/>
<path d="M32.9997 37.7C32.8997 37.6 32.6997 37.6 32.5997 37.7L32.4997 37.8C32.2997 37.9 32.2997 38.1 32.3997 38.3C32.4997 38.5 32.6997 38.5 32.8997 38.4L33.0997 38.3C33.0997 38.1 33.1997 37.9 32.9997 37.7C33.0997 37.7 32.9997 37.7 32.9997 37.7Z" fill="white"/>
<path d="M29.1 39.7999C29 39.6999 28.9 39.7 28.7 39.7H28.6H28.5C28.3 39.8 28.3 39.9999 28.3 40.0999C28.4 40.2999 28.6 40.2999 28.8 40.2999H28.9C29.1 40.1999 29.2 39.9999 29.1 39.7999C29.2 39.8999 29.2 39.8999 29.1 39.7999Z" fill="white"/>
<path d="M38.1001 9.5001C38.3001 9.4001 38.3001 9.2001 38.2001 9.0001L38.1001 8.8001C38.0001 8.7001 37.8001 8.7001 37.7001 8.8001C37.5001 8.9001 37.5001 9.1001 37.6001 9.3001L37.7001 9.4001C37.7001 9.5001 37.9001 9.6001 38.1001 9.5001Z" fill="white"/>
<path d="M33.1004 3.89991C32.9004 3.79991 32.7004 3.79991 32.6004 3.99991C32.5004 4.09991 32.5004 4.29991 32.6004 4.39991L32.8004 4.49991C33.0004 4.59991 33.2004 4.59991 33.3004 4.39991C33.4004 4.19991 33.4004 3.99991 33.2004 3.89991H33.1004Z" fill="white"/>
<path d="M31.8001 38.4999C31.7001 38.3999 31.5001 38.3999 31.4001 38.3999L31.2001 38.4999C31.0001 38.5999 31.0001 38.7999 31.1001 38.9999C31.2001 39.1999 31.4001 39.1999 31.6001 39.0999L31.7001 38.9999C31.9001 38.9999 31.9001 38.6999 31.8001 38.4999C31.8001 38.5999 31.8001 38.4999 31.8001 38.4999Z" fill="white"/>
<path d="M29.3 1.80012L29.1 1.70012C28.9 1.60012 28.7 1.70012 28.6 1.90012C28.5 2.00012 28.6 2.20012 28.7 2.30012L28.8 2.40012L29 2.50012C29.2 2.60012 29.4 2.50012 29.5 2.30012C29.6 2.10012 29.5 1.90012 29.3 1.80012Z" fill="white"/>
<path d="M30.5 39.2001C30.4 39.1001 30.2 39.1001 30.1 39.1001L29.9 39.2001C29.7 39.3001 29.7 39.5001 29.7 39.7001C29.8 39.9001 30 39.9001 30.2 39.9001L30.4 39.8001C30.6 39.7001 30.6 39.5001 30.5 39.2001C30.5 39.3001 30.5 39.2001 30.5 39.2001Z" fill="white"/>
<path d="M30.7004 2.39997L30.5004 2.29997C30.3004 2.19997 30.1004 2.29997 30.0004 2.39997C29.9004 2.49997 30.0004 2.69997 30.1004 2.79997C30.1004 2.79997 30.2004 2.79997 30.2004 2.89997L30.4004 2.99997C30.6004 3.09997 30.8004 2.99997 30.9004 2.89997C30.9004 2.69997 30.8004 2.49997 30.7004 2.39997Z" fill="white"/>
<path d="M32.0001 3.20002L31.8001 3.10002C31.6001 3.00002 31.4001 3.10002 31.3001 3.20002C31.2001 3.30002 31.2001 3.50002 31.4001 3.60002C31.4001 3.60002 31.4001 3.60001 31.5001 3.70002L31.7001 3.80002C31.9001 3.90002 32.1001 3.90001 32.2001 3.70002C32.2001 3.50002 32.1001 3.30002 32.0001 3.20002Z" fill="white"/>
<path d="M38.2001 32.3999C38.0001 32.2999 37.8001 32.2999 37.7001 32.4999L37.6001 32.5999C37.5001 32.7999 37.5001 32.9999 37.7001 33.0999C37.9001 33.1999 38.1001 33.1999 38.2001 32.9999L38.3001 32.7999C38.4001 32.7999 38.4001 32.5999 38.2001 32.3999C38.2001 32.4999 38.2001 32.3999 38.2001 32.3999Z" fill="white"/>
<path d="M41.1 25.7C40.9 25.7 40.7 25.8 40.7 26V26.2C40.7 26.4 40.8 26.6 40.9 26.6C41.1 26.6 41.3 26.5 41.3 26.4V26.2C41.3 26.1 41.3 26 41.2 25.9C41.2 25.7 41.2 25.7 41.1 25.7Z" fill="white"/>
<path d="M41.4 24.2C41.2 24.2 41 24.3 41 24.5V24.7C41 24.9 41.1 25.1 41.3 25.1C41.5 25.1 41.7 24.9999 41.7 24.7999V24.6C41.7 24.5 41.7 24.3999 41.6 24.2999C41.5 24.1999 41.5 24.2 41.4 24.2Z" fill="white"/>
<path d="M41.6 22.7C41.4 22.7 41.2 22.8 41.2 23V23.2C41.2 23.4 41.3 23.6 41.5 23.6C41.7 23.6 41.9 23.4999 41.9 23.2999V23.1C41.9 23 41.9 22.8999 41.8 22.7999C41.7 22.7999 41.6 22.7 41.6 22.7Z" fill="white"/>
<path d="M40.7004 27.1C40.5004 27 40.3004 27.1 40.3004 27.3L40.2004 27.5C40.1004 27.7 40.2004 27.9 40.4004 27.9C40.6004 28 40.8004 27.9 40.8004 27.7L40.9004 27.5C40.9004 27.4 40.9004 27.2 40.8004 27.1C40.8004 27.1 40.8004 27.1 40.7004 27.1Z" fill="white"/>
<path d="M39.0001 31.2001C38.8001 31.1001 38.6001 31.2001 38.5001 31.3001L38.4001 31.5001C38.3001 31.7001 38.4001 31.9001 38.5001 32.0001C38.7001 32.1001 38.9001 32.0001 39.0001 31.9001L39.1001 31.7001C39.2001 31.5001 39.1001 31.3001 39.0001 31.2001Z" fill="white"/>
<path d="M41.9 21.2999C41.8 21.1999 41.8 21.2 41.7 21.2C41.5 21.2 41.3 21.3 41.3 21.5V21.7C41.3 21.9 41.4 22.1 41.6 22.1C41.8 22.1 42 21.9999 42 21.7999V21.6C42 21.5 41.9 21.3999 41.9 21.2999Z" fill="white"/>
<path d="M40.2 28.4999C40 28.3999 39.8 28.4999 39.7 28.6999L39.6 28.8999C39.5 29.0999 39.6 29.2999 39.8 29.3999C40 29.4999 40.2 29.3999 40.3 29.1999L40.4 28.9999C40.5 28.8999 40.4 28.6999 40.3 28.5999C40.3 28.4999 40.3 28.4999 40.2 28.4999Z" fill="white"/>
<path d="M21.5996 41.3H21.3996C21.1996 41.3 21.0996 41.5001 21.0996 41.7001C21.0996 41.9001 21.2996 42 21.4996 42H21.6996C21.8996 42 21.9996 41.8 21.9996 41.6C21.9996 41.5 21.9996 41.4001 21.8996 41.4001C21.7996 41.3001 21.6996 41.3 21.5996 41.3Z" fill="white"/>
<path d="M20.1996 41.3H19.9996C19.7996 41.3 19.5996 41.4 19.5996 41.6C19.5996 41.8 19.6996 42 19.8996 42H20.0996C20.2996 42 20.4996 41.9001 20.4996 41.7001C20.4996 41.6001 20.4996 41.5001 20.3996 41.4001C20.3996 41.3001 20.2996 41.3 20.1996 41.3Z" fill="white"/>
<path d="M15.8997 40.6H15.6997C15.4997 40.5 15.2997 40.7 15.2997 40.8C15.1997 41 15.3997 41.2 15.4997 41.2H15.6997C15.8997 41.2 16.0997 41.1 16.0997 41C16.0997 40.9 16.0997 40.7 15.9997 40.7L15.8997 40.6Z" fill="white"/>
<path d="M18.6996 41.1001H18.4996C18.2996 41.1001 18.0996 41.2001 18.0996 41.4001C18.0996 41.6001 18.1996 41.8001 18.3996 41.8001H18.5996C18.7996 41.8001 18.9996 41.7001 18.9996 41.5001C18.9996 41.4001 18.9996 41.3001 18.8996 41.2001C18.8996 41.2001 18.7996 41.2001 18.6996 41.1001Z" fill="white"/>
<path d="M20.5 0H20.3C20.1 0 20 0.2 20 0.4C20 0.5 20 0.6 20.1 0.6C20.2 0.7 20.3 0.7 20.4 0.7H20.6C20.8 0.7 20.9 0.5 20.9 0.3C20.8 0.2 20.7 0 20.5 0Z" fill="white"/>
<path d="M19 0.100098H18.8C18.6 0.100098 18.5 0.300098 18.5 0.500098C18.5 0.600098 18.5 0.700098 18.6 0.700098C18.7 0.800098 18.8 0.800098 18.9 0.800098H19.1C19.3 0.800098 19.4 0.600098 19.4 0.400098C19.4 0.200098 19.2 0.100098 19 0.100098Z" fill="white"/>
<path d="M17.5 0.300049H17.3C17.1 0.300049 17 0.500049 17 0.700049C17 0.800049 17 0.800049 17.1 0.900049C17.2 1.00005 17.3 1.00005 17.4 1.00005H17.6C17.8 1.00005 17.9 0.800049 17.9 0.600049C17.9 0.400049 17.7 0.300049 17.5 0.300049Z" fill="white"/>
<path d="M16 0.600098H15.8C15.6 0.600098 15.5 0.800098 15.5 1.0001C15.5 1.1001 15.5 1.1001 15.6 1.2001C15.7 1.3001 15.8 1.3001 15.9 1.3001H16.1C16.3 1.3001 16.4 1.1001 16.4 0.900098C16.4 0.700098 16.2 0.600098 16 0.600098Z" fill="white"/>
<path d="M17.3 40.8999H17.1C16.9 40.8999 16.7 40.9999 16.7 41.1999C16.7 41.3999 16.8 41.5999 17 41.5999H17.2C17.4 41.5999 17.6 41.4999 17.6 41.2999C17.6 41.1999 17.6 41.0999 17.5 40.9999C17.4 40.9999 17.4 40.8999 17.3 40.8999Z" fill="white"/>
<path d="M23.5004 0.199951H23.3004C23.1004 0.199951 22.9004 0.299951 22.9004 0.499951C22.9004 0.599951 22.9004 0.699951 23.0004 0.799951C23.1004 0.899951 23.1004 0.899951 23.2004 0.899951H23.4004C23.6004 0.899951 23.8004 0.799951 23.8004 0.599951C23.8004 0.399951 23.7004 0.199951 23.5004 0.199951Z" fill="white"/>
<path d="M25.0004 0.399902H24.8004C24.6004 0.399902 24.4004 0.499902 24.4004 0.699902C24.4004 0.799902 24.4004 0.899902 24.5004 0.999902C24.5004 0.999902 24.6004 1.0999 24.7004 1.0999H24.9004C25.1004 1.0999 25.3004 0.999902 25.3004 0.799902C25.3004 0.599902 25.2004 0.499902 25.0004 0.399902Z" fill="white"/>
<path d="M26.5004 0.800049H26.3004C26.1004 0.800049 25.9004 0.900049 25.9004 1.00005C25.9004 1.10005 25.9004 1.30005 26.0004 1.30005C26.0004 1.30005 26.1004 1.40005 26.2004 1.40005H26.4004C26.6004 1.50005 26.8004 1.30005 26.8004 1.20005C26.8004 1.00005 26.7004 0.800049 26.5004 0.800049Z" fill="white"/>
<path d="M26.3 40.7999C26.2 40.6999 26.1 40.7 26 40.7H25.8C25.6 40.7 25.5 40.8999 25.5 41.0999C25.5 41.2999 25.7 41.4 25.9 41.4H26.1C26.3 41.4 26.4 41.2 26.4 41C26.4 40.9 26.3 40.7999 26.3 40.7999Z" fill="white"/>
<path d="M27.6996 40.4001C27.5996 40.3001 27.4996 40.3 27.2996 40.3L27.0996 40.4001C26.8996 40.5001 26.7996 40.7 26.8996 40.8C26.9996 41 27.1996 41.1 27.2996 41L27.4996 40.9001C27.6996 40.8001 27.7996 40.6 27.6996 40.5C27.7996 40.4 27.7996 40.4001 27.6996 40.4001Z" fill="white"/>
<path d="M27.9 1.20002L27.7 1.10002C27.5 1.00002 27.3 1.10002 27.3 1.30002C27.3 1.40002 27.3 1.60002 27.4 1.70002L27.5 1.80002L27.7 1.90002C27.9 2.00002 28.1 1.90002 28.1 1.70002C28.2 1.50002 28.1 1.30002 27.9 1.20002Z" fill="white"/>
<path d="M23.0996 41.2H22.8996C22.6996 41.2 22.5996 41.3999 22.5996 41.5999C22.5996 41.7999 22.7996 41.9 22.9996 41.9H23.1996C23.3996 41.9 23.4996 41.7 23.4996 41.5C23.4996 41.4 23.4996 41.2999 23.3996 41.2999C23.2996 41.1999 23.1996 41.2 23.0996 41.2Z" fill="white"/>
<path d="M22.0004 0.100098H21.8004C21.6004 0.100098 21.4004 0.200098 21.4004 0.400098C21.4004 0.500098 21.4004 0.600098 21.5004 0.700098C21.6004 0.800098 21.6004 0.800098 21.7004 0.800098H21.9004C22.1004 0.800098 22.3004 0.700098 22.3004 0.500098C22.3004 0.300098 22.2004 0.100098 22.0004 0.100098Z" fill="white"/>
<path d="M24.5 41H24.3C24.1 41 24 41.2 24 41.4C24 41.6 24.2 41.7 24.4 41.7H24.6C24.8 41.7 24.9 41.5 24.9 41.3C24.9 41.2 24.9 41.2 24.8 41.1C24.8 41 24.7 41 24.5 41Z" fill="white"/>
<path d="M20.9004 4.3999C17.1004 4.3999 13.6004 5.6999 10.8004 7.8999C10.9004 7.9999 11.0004 8.0999 11.2004 8.2999C7.40039 11.1999 4.90039 15.7999 4.90039 20.8999C4.90039 26.8999 8.20039 32.0999 13.2004 34.8999C13.1004 34.9999 13.0004 35.1999 12.9004 35.2999C15.3004 36.5999 18.0004 37.3999 20.9004 37.3999C30.0004 37.3999 37.4004 29.9999 37.4004 20.8999C37.4004 11.7999 29.9004 4.3999 20.9004 4.3999ZM5.20039 20.8999C5.20039 15.7999 7.60039 11.2999 11.4004 8.4999C11.5004 8.5999 11.6004 8.6999 11.8004 8.8999C14.3004 6.9999 17.5004 5.7999 20.9004 5.7999C29.2004 5.7999 36.0004 12.5999 36.0004 20.8999C36.0004 29.1999 29.2004 35.9999 20.9004 35.9999C18.3004 35.9999 15.9004 35.2999 13.7004 34.1999C13.6004 34.2999 13.5004 34.4999 13.4004 34.5999C8.50039 31.8999 5.20039 26.7999 5.20039 20.8999Z" fill="white"/>
<path d="M33.9996 18.8C32.9996 12.4 27.4996 7.5 20.8996 7.5C13.5996 7.5 7.59961 13.5 7.59961 20.8C7.59961 28.1 13.5996 34.1 20.8996 34.1C21.8996 34.1 22.8996 34 23.8996 33.8C29.7996 32.4 34.2996 27.1 34.2996 20.8C34.1996 20.1 34.0996 19.5 33.9996 18.8ZM32.7996 20.9C32.7996 26.7 28.6996 31.5 23.1996 32.6C22.3996 32.8 21.5996 32.8 20.7996 32.8C14.1996 32.8 8.79961 27.4 8.79961 20.8C8.79961 14.2 14.1996 8.8 20.7996 8.8C26.6996 8.8 31.5996 13.1 32.5996 18.6C32.6996 19.4 32.7996 20.1 32.7996 20.9Z" fill="white"/>
<path d="M30.4996 20.9C30.4996 15.6 26.1996 11.2 20.7996 11.2C15.4996 11.2 11.0996 15.5 11.0996 20.9C11.0996 21.2 11.0996 21.5 11.0996 21.8C10.8996 21.8 10.7996 21.8 10.5996 21.8C10.9996 27 15.3996 31.1 20.6996 31.1C23.2996 31.1 25.6996 30.1 27.4996 28.4C27.3996 28.3 27.1996 28.2 27.0996 28.1C29.2996 26.3 30.4996 23.7 30.4996 20.9ZM11.4996 20.9C11.4996 15.8 15.6996 11.6 20.7996 11.6C25.8996 11.6 30.0996 15.8 30.0996 20.9C30.0996 23.7 28.8996 26.1 26.9996 27.9C26.8996 27.8 26.6996 27.7 26.5996 27.6C24.9996 29 22.9996 29.7999 20.7996 29.7999C16.2996 29.7999 12.4996 26.3 11.9996 21.9C11.7996 21.9 11.6996 21.9 11.4996 21.9C11.4996 21.5 11.4996 21.2 11.4996 20.9Z" fill="white"/>
</svg>
