<svg width="196" height="43" viewBox="0 0 196 43" fill="none" xmlns="http://www.w3.org/2000/svg">
<path d="M75.0004 13.6V14.8C75.0004 15 74.9004 15.1 74.7004 15.1H72.5004V27.3C72.5004 27.5 72.4004 27.6 72.2004 27.6H70.9004C70.7004 27.6 70.6004 27.5 70.6004 27.3V15.1H68.4004C68.2004 15.1 68.1004 15 68.1004 14.8V13.6C68.1004 13.4 68.2004 13.3 68.4004 13.3H74.6004C74.9004 13.4 75.0004 13.5 75.0004 13.6Z" fill="#305BA9"/>
<path d="M75.5008 24V17C75.5008 14.9 76.9008 13.4 79.0008 13.4H81.0008C81.2008 13.4 81.3008 13.5 81.3008 13.7V14.9C81.3008 15.1 81.2008 15.2 81.0008 15.2H79.0008C77.9008 15.2 77.2008 16 77.2008 17.2V19.8H80.4008C80.6008 19.8 80.7008 19.9 80.7008 20.1V21.2C80.7008 21.4 80.6008 21.5 80.4008 21.5H77.2008V24.2C77.2008 25.4 77.9008 26.2 79.0008 26.2H81.0008C81.2008 26.2 81.3008 26.3 81.3008 26.5V27.7C81.3008 27.9 81.2008 28 81.0008 28H78.9008C76.9008 27.6 75.5008 26.1 75.5008 24Z" fill="#305BA9"/>
<path d="M88.1004 13.4H89.4004C89.6004 13.4 89.7004 13.5 89.7004 13.7V27.3C89.7004 27.5 89.6004 27.6 89.4004 27.6H88.1004C87.9004 27.6 87.8004 27.5 87.8004 27.3V21.2H84.7004V27.3C84.7004 27.5 84.6004 27.6 84.4004 27.6H83.1004C82.9004 27.6 82.8004 27.5 82.8004 27.3V13.6C82.8004 13.4 82.9004 13.3 83.1004 13.3H84.4004C84.6004 13.3 84.7004 13.4 84.7004 13.6V19.5H87.8004V13.6C87.8004 13.5 87.9004 13.4 88.1004 13.4Z" fill="#305BA9"/>
<path d="M91.8004 27.2V16.9C91.8004 14.7 93.2004 13.2 95.3004 13.2C97.4004 13.2 98.8004 14.7 98.8004 16.9V27.3C98.8004 27.5 98.7004 27.6 98.5004 27.6H97.2004C97.0004 27.6 96.9004 27.5 96.9004 27.3V16.8C96.9004 15.6 96.3004 14.9 95.3004 14.9C94.3004 14.9 93.7004 15.7 93.7004 16.8V27.3C93.7004 27.5 93.6004 27.6 93.4004 27.6H92.0004C91.9004 27.5 91.8004 27.4 91.8004 27.2Z" fill="#305BA9"/>
<path d="M101.1 13.4H102.4C102.6 13.4 102.7 13.5 102.7 13.7V27.3C102.7 27.5 102.6 27.6 102.4 27.6H101.1C100.9 27.6 100.8 27.5 100.8 27.3V13.6C100.8 13.5 100.9 13.4 101.1 13.4Z" fill="#305BA9"/>
<path d="M104.9 27.2V13.6C104.9 13.4 105 13.3 105.2 13.3H106.5C106.7 13.3 106.8 13.4 106.8 13.6V19.5H108.4L110.1 13.5C110.1 13.4 110.3 13.3 110.4 13.3H111.7C111.9 13.3 112 13.4 111.9 13.6L110 20C111.2 20.5 111.8 21.7 111.8 23.3V27.3C111.8 27.5 111.7 27.6 111.5 27.6H110.2C110 27.6 109.9 27.5 109.9 27.3V23.3C109.9 22.1 109.3 21.3 108.2 21.3H106.7V27.3C106.7 27.5 106.6 27.6 106.4 27.6H105.1C105 27.5 104.9 27.4 104.9 27.2Z" fill="#305BA9"/>
<path d="M113.501 27.2V16.9C113.501 14.7 114.901 13.2 117.001 13.2C119.101 13.2 120.501 14.7 120.501 16.9V27.3C120.501 27.5 120.401 27.6 120.201 27.6H118.901C118.701 27.6 118.601 27.5 118.601 27.3V22.8H115.301V27.3C115.301 27.5 115.201 27.6 115.001 27.6H113.701C113.601 27.5 113.501 27.4 113.501 27.2ZM118.601 21.1V16.8C118.601 15.6 118.001 14.9 117.001 14.9C116.001 14.9 115.401 15.6 115.401 16.8V21.1H118.601Z" fill="#305BA9"/>
<path d="M127.001 27.1V13.8C127.001 13.5 127.201 13.3 127.501 13.3H130.201C132.201 13.3 133.501 14.8 133.501 16.7V24.1C133.501 26 132.201 27.6 130.201 27.6H127.501C127.201 27.6 127.001 27.4 127.001 27.1ZM130.201 26.7C131.601 26.7 132.501 25.6 132.501 24.1V16.7C132.501 15.3 131.601 14.2 130.201 14.2H128.001V26.7H130.201Z" fill="#305BA9"/>
<path d="M136.5 13.4C136.6 13.4 136.7 13.5 136.7 13.6V24.2C136.7 25.8 137.6 26.9 139 26.9C140.4 26.9 141.3 25.8 141.3 24.2V13.5C141.3 13.4 141.4 13.3 141.5 13.3H142.1C142.2 13.3 142.3 13.4 142.3 13.5V24.1C142.3 26.2 141 27.7 139 27.7C137 27.7 135.7 26.2 135.7 24.1V13.5C135.7 13.4 135.8 13.3 135.9 13.3H136.5V13.4Z" fill="#305BA9"/>
<path d="M144.6 27.4V16.8C144.6 14.7 145.9 13.2 147.9 13.2C149.9 13.2 151.2 14.7 151.2 16.8V27.4C151.2 27.5 151.1 27.6 151 27.6H150.4C150.3 27.6 150.2 27.5 150.2 27.4V16.8C150.2 15.2 149.3 14.1 147.9 14.1C146.5 14.1 145.6 15.2 145.6 16.8V27.4C145.6 27.5 145.5 27.6 145.4 27.6H144.8C144.7 27.5 144.6 27.5 144.6 27.4Z" fill="#305BA9"/>
<path d="M156 27.4V22.9C154.4 22.7 153.2 21.3 153.2 19.5V13.5C153.2 13.4 153.3 13.3 153.4 13.3H154C154.1 13.3 154.2 13.4 154.2 13.5V19.5C154.2 21 155.2 22.1 156.5 22.1C157.8 22.1 158.8 21 158.8 19.5V13.5C158.8 13.4 158.9 13.3 159 13.3H159.6C159.7 13.3 159.8 13.4 159.8 13.5V19.5C159.8 21.3 158.6 22.7 157 22.9V27.4C157 27.5 156.9 27.6 156.8 27.6H156.2C156.1 27.5 156 27.5 156 27.4Z" fill="#305BA9"/>
<path d="M161.8 27.4V16.8C161.8 14.6 163.1 13.2 165.1 13.2C167 13.2 168.4 14.6 168.4 16.8V27.4C168.4 27.5 168.3 27.6 168.2 27.6H167.6C167.5 27.6 167.4 27.5 167.4 27.4V22.3H162.7V27.4C162.7 27.5 162.6 27.6 162.5 27.6H162C161.9 27.5 161.8 27.5 161.8 27.4ZM167.4 21.4V16.8C167.4 15.1 166.5 14.1 165.1 14.1C163.6 14.1 162.8 15.1 162.8 16.8V21.4H167.4Z" fill="#305BA9"/>
<path d="M170.3 24.1C170.3 24 170.4 23.9 170.5 23.9H171.1C171.2 23.9 171.3 24 171.3 24.1C171.4 25.8 172.2 26.9 173.7 26.9C175.2 26.9 176 26 176 24.6C176 21 170.4 20.4 170.4 16.4C170.4 14.5 171.7 13.3 173.6 13.3C175.4 13.3 176.7 14.7 176.8 16.9C176.8 17 176.7 17.1 176.6 17.1H176C175.9 17.1 175.8 17 175.8 16.9C175.7 15.1 174.9 14.2 173.6 14.2C172.2 14.2 171.4 15 171.4 16.4C171.4 19.8 177 20.4 177 24.6C177 26.5 175.7 27.8 173.7 27.8C171.6 27.7 170.3 26.2 170.3 24.1Z" fill="#305BA9"/>
<path d="M179.1 13.4H179.7C179.8 13.4 179.9 13.5 179.9 13.6V27.4C179.9 27.5 179.8 27.6 179.7 27.6H179.1C179 27.6 178.9 27.5 178.9 27.4V13.5C179 13.4 179 13.4 179.1 13.4Z" fill="#305BA9"/>
<path d="M28.2004 38L28.0004 37.9C27.8004 37.8 27.6004 37.8 27.5004 38C27.4004 38.2 27.4004 38.4 27.6004 38.5L27.8004 38.6C28.0004 38.7 28.2004 38.7 28.3004 38.5C28.4004 38.4 28.4004 38.2 28.2004 38Z" fill="#305BA9"/>
<path d="M22.5006 31.9C22.4006 31.7 22.2006 31.7 22.0006 31.8C21.8006 31.9 21.8006 32.1 21.9006 32.3L22.0006 32.5C22.0006 32.5 22.0006 32.5 22.1006 32.6C22.2006 32.7 22.4006 32.7 22.5006 32.6C22.7006 32.5 22.7006 32.3 22.6006 32.1L22.5006 31.9Z" fill="#305BA9"/>
<path d="M21.9004 30.8L21.8004 30.6C21.7004 30.4 21.5004 30.4 21.3004 30.5C21.1004 30.6 21.1004 30.8 21.2004 31L21.3004 31.2C21.3004 31.2 21.3004 31.3 21.4004 31.3C21.5004 31.4 21.7004 31.4 21.8004 31.4C21.9004 31.2 22.0004 31 21.9004 30.8Z" fill="#305BA9"/>
<path d="M19.6004 22.4V22.2C19.6004 22 19.4004 21.9 19.2004 21.9C19.0004 21.9 18.9004 22.1 18.9004 22.3V22.5C18.9004 22.6 18.9004 22.7 19.0004 22.7C19.1004 22.8 19.2004 22.8 19.3004 22.8C19.5004 22.7 19.6004 22.6 19.6004 22.4Z" fill="#305BA9"/>
<path d="M21.2004 29.5L21.1004 29.3C21.0004 29.1 20.8004 29 20.6004 29.1C20.4004 29.2 20.3004 29.4 20.4004 29.6L20.5004 29.8C20.5004 29.8 20.5004 29.9 20.6004 29.9C20.7004 30 20.8004 30 21.0004 30C21.2004 29.8 21.3004 29.6 21.2004 29.5Z" fill="#305BA9"/>
<path d="M20.7004 28.1L20.6004 27.9C20.5004 27.7 20.3004 27.6 20.2004 27.7C20.0004 27.8 19.9004 28 20.0004 28.1L20.1004 28.3C20.1004 28.4 20.1004 28.4 20.2004 28.4C20.3004 28.5 20.4004 28.5 20.6004 28.5C20.7004 28.5 20.8004 28.3 20.7004 28.1Z" fill="#305BA9"/>
<path d="M20.0008 25.3V25.1C20.0008 24.9 19.8008 24.8 19.6008 24.8C19.4008 24.8 19.3008 25 19.3008 25.2V25.4C19.3008 25.5 19.3008 25.5 19.4008 25.6C19.5008 25.7 19.6008 25.7 19.7008 25.7C19.9008 25.6 20.0008 25.5 20.0008 25.3Z" fill="#305BA9"/>
<path d="M19.7 23.8V23.6C19.7 23.4 19.5 23.3 19.3 23.3C19.1 23.3 19 23.5 19 23.7V23.9C19 24 19 24 19.1 24.1C19.2 24.2 19.3 24.2 19.4 24.2C19.6 24.2 19.8 24 19.7 23.8Z" fill="#305BA9"/>
<path d="M20.3004 26.7V26.5C20.3004 26.3 20.1004 26.2 19.9004 26.2C19.7004 26.2 19.6004 26.4 19.7004 26.6V26.8C19.7004 26.9 19.7004 26.9 19.8004 27C19.9004 27.1 20.0004 27.1 20.1004 27.1C20.2004 27.1 20.3004 26.9 20.3004 26.7Z" fill="#305BA9"/>
<path d="M23.3004 33.1C23.2004 33 23.0004 32.9 22.8004 33C22.6004 33.1 22.6004 33.3 22.7004 33.5L22.8004 33.7C22.9004 33.8 23.1004 33.8 23.2004 33.7C23.4004 33.6 23.4004 33.4 23.3004 33.2V33.1Z" fill="#305BA9"/>
<path d="M32 40.2L31.8 40.1C31.6 40 31.4 40.1 31.3 40.3C31.2 40.5 31.3 40.7 31.5 40.8L31.7 40.9C31.9 41 32.1 40.9 32.2 40.7C32.3 40.6 32.2 40.4 32.1 40.3C32.1 40.2 32 40.2 32 40.2Z" fill="#305BA9"/>
<path d="M32.0004 2.1C31.7004 2.2 31.6004 2.4 31.7004 2.6C31.7004 2.6 31.7004 2.7 31.8004 2.7C31.9004 2.8 32.0004 2.8 32.2004 2.8H32.3004H32.4004C32.6004 2.7 32.6004 2.5 32.6004 2.4C32.4004 2.1 32.1004 2 32.0004 2.1Z" fill="#305BA9"/>
<path d="M28.0004 4.2L27.8004 4.3C27.6004 4.4 27.6004 4.6 27.7004 4.8C27.8004 4.9 28.0004 4.9 28.1004 4.8L28.2004 4.7C28.4004 4.6 28.4004 4.4 28.3004 4.2C28.4004 4.1 28.2004 4 28.0004 4.2Z" fill="#305BA9"/>
<path d="M33.4 40.7L33.2 40.6C33 40.5 32.8 40.6 32.8 40.8C32.7 41 32.8 41.2 33 41.2L33.2 41.3C33.4 41.4 33.6 41.3 33.6 41.1C33.6 41 33.6 40.8 33.5 40.7H33.4Z" fill="#305BA9"/>
<path d="M30.7008 2.60001L30.5008 2.70001C30.3008 2.80001 30.3008 3.00001 30.3008 3.20001C30.3008 3.20001 30.3008 3.30001 30.4008 3.30001C30.5008 3.40001 30.7008 3.40001 30.8008 3.40001L31.0008 3.30001C31.2008 3.20001 31.2008 3.00001 31.2008 2.80001C31.0008 2.60001 30.8008 2.60001 30.7008 2.60001Z" fill="#305BA9"/>
<path d="M30.7004 39.5L30.5004 39.4C30.3004 39.3 30.1004 39.4 30.0004 39.5C29.9004 39.7 30.0004 39.9 30.1004 40L30.3004 40.1C30.5004 40.2 30.7004 40.1 30.8004 40C30.9004 39.9 30.9004 39.7 30.7004 39.5C30.7004 39.6 30.7004 39.6 30.7004 39.5Z" fill="#305BA9"/>
<path d="M29.4004 38.8L29.2004 38.7C29.0004 38.6 28.8004 38.6 28.7004 38.8C28.6004 39 28.6004 39.2 28.8004 39.3L29.0004 39.4C29.2004 39.5 29.4004 39.4 29.5004 39.3C29.6004 39.2 29.6004 39 29.4004 38.8C29.4004 38.8 29.5004 38.9 29.4004 38.8Z" fill="#305BA9"/>
<path d="M29.3004 3.4L29.2004 3.5C29.0004 3.5 28.9004 3.8 29.0004 3.9C29.0004 3.9 29.0004 3.9 29.1004 4C29.2004 4.1 29.4004 4.1 29.5004 4.1L29.7004 4C29.9004 3.9 29.9004 3.7 29.8004 3.5C29.7004 3.3 29.4004 3.3 29.3004 3.4Z" fill="#305BA9"/>
<path d="M21.2 12.6C21.4 12.7 21.6 12.6 21.7 12.4L21.8 12.2C21.9 12 21.8 11.8 21.6 11.7C21.4 11.6 21.2 11.7 21.1 11.9L21 12.1C21 12.3 21 12.5 21.2 12.6Z" fill="#305BA9"/>
<path d="M58.5004 13.5L58.6004 13.7C58.7004 13.9 58.9004 14 59.1004 13.9C59.3004 13.8 59.4004 13.6 59.3004 13.4L59.2004 13.2C59.2004 13.2 59.2004 13.1 59.1004 13.1C59.0004 13 58.9004 13 58.7004 13C58.5004 13.2 58.4004 13.4 58.5004 13.5Z" fill="#305BA9"/>
<path d="M59.1 14.9L59.2 15.1C59.3 15.3 59.5 15.4 59.6 15.3C59.8 15.2 59.9 15 59.8 14.9L59.7 14.7C59.7 14.6 59.7 14.6 59.6 14.6C59.5 14.5 59.4 14.5 59.2 14.5C59.1 14.5 59 14.7 59.1 14.9Z" fill="#305BA9"/>
<path d="M57.9008 12.2L58.0008 12.4C58.1008 12.6 58.3008 12.6 58.5008 12.5C58.7008 12.4 58.7008 12.2 58.6008 12L58.5008 11.8C58.5008 11.8 58.5008 11.7 58.4008 11.7C58.3008 11.6 58.1008 11.6 58.0008 11.6C57.9008 11.8 57.8008 12 57.9008 12.2Z" fill="#305BA9"/>
<path d="M59.5004 16.3V16.5C59.5004 16.7 59.7004 16.8 59.9004 16.8C60.1004 16.8 60.2004 16.6 60.1004 16.4V16.2C60.1004 16.1 60.1004 16.1 60.0004 16C59.9004 15.9 59.8004 15.9 59.7004 15.9C59.5004 15.9 59.4004 16.1 59.5004 16.3Z" fill="#305BA9"/>
<path d="M60 19.2V19.4C60 19.6 60.2 19.7 60.4 19.7C60.6 19.7 60.7 19.5 60.7 19.3V19.1C60.7 19 60.7 19 60.6 18.9C60.5 18.8 60.4 18.8 60.3 18.8C60.1 18.8 60 19 60 19.2Z" fill="#305BA9"/>
<path d="M59.8008 17.7V17.9C59.8008 18.1 60.0008 18.2 60.2008 18.2C60.4008 18.2 60.5008 18 60.5008 17.8V17.6C60.5008 17.5 60.5008 17.5 60.4008 17.4C60.3008 17.3 60.2008 17.3 60.1008 17.3C59.9008 17.4 59.8008 17.5 59.8008 17.7Z" fill="#305BA9"/>
<path d="M60.2004 20.6V20.8C60.2004 21 60.4004 21.1 60.6004 21.1C60.8004 21.1 60.9004 20.9 60.9004 20.7V20.5C60.9004 20.4 60.9004 20.3 60.8004 20.3C60.7004 20.2 60.6004 20.2 60.5004 20.2C60.3004 20.3 60.1004 20.4 60.2004 20.6Z" fill="#305BA9"/>
<path d="M57.3004 11.1C57.4004 11.3 57.6004 11.3 57.8004 11.2C58.0004 11.1 58.0004 10.9 57.9004 10.7L57.8004 10.5C57.8004 10.5 57.8004 10.5 57.7004 10.4C57.6004 10.3 57.4004 10.3 57.3004 10.4C57.1004 10.5 57.1004 10.7 57.2004 10.9L57.3004 11.1Z" fill="#305BA9"/>
<path d="M21.9001 11.3C22.1001 11.4 22.3001 11.3 22.4001 11.2L22.5001 11C22.6001 10.8 22.5001 10.6 22.4001 10.5C22.2001 10.4 22.0001 10.5 21.9001 10.6L21.8001 10.8C21.7001 11 21.7001 11.2 21.9001 11.3Z" fill="#305BA9"/>
<path d="M19.8004 16.8C20.0004 16.8 20.2004 16.7 20.2004 16.5V16.3C20.2004 16.1 20.1004 15.9 20.0004 15.9C19.8004 15.9 19.6004 16 19.6004 16.1V16.3C19.6004 16.4 19.6004 16.5 19.7004 16.6C19.6004 16.8 19.7004 16.8 19.8004 16.8Z" fill="#305BA9"/>
<path d="M19.5004 18.3C19.7004 18.3 19.9004 18.2 19.9004 18V17.8C19.9004 17.6 19.8004 17.4 19.6004 17.4C19.4004 17.4 19.2004 17.5 19.2004 17.7V17.9C19.2004 18 19.2004 18.1 19.3004 18.2C19.3004 18.3 19.4004 18.3 19.5004 18.3Z" fill="#305BA9"/>
<path d="M19.3 19.8C19.5 19.8 19.7 19.7 19.7 19.5V19.3C19.7 19.1 19.6 18.9 19.4 18.9C19.2 18.9 19 19 19 19.2V19.4C19 19.5 19 19.6 19.1 19.7C19.2 19.7 19.2 19.8 19.3 19.8Z" fill="#305BA9"/>
<path d="M20.1004 15.4C20.3004 15.5 20.5004 15.4 20.5004 15.2L20.6004 15C20.7004 14.8 20.6004 14.6 20.4004 14.6C20.2004 14.5 20.0004 14.6 20.0004 14.8L19.9004 15C19.9004 15.1 19.9004 15.3 20.0004 15.4H20.1004Z" fill="#305BA9"/>
<path d="M22.7008 10.1C22.9008 10.2 23.1008 10.2 23.2008 10L23.3008 9.90001C23.4008 9.70001 23.4008 9.50001 23.2008 9.40001C23.0008 9.30001 22.8008 9.30001 22.7008 9.50001L22.6008 9.70001C22.5008 9.70001 22.5008 9.90001 22.7008 10.1C22.7008 10.1 22.6008 10 22.7008 10.1Z" fill="#305BA9"/>
<path d="M19.2004 21.3C19.4004 21.3 19.6004 21.2 19.6004 21V20.8C19.6004 20.6 19.5004 20.4 19.3004 20.4C19.1004 20.4 18.9004 20.5 18.9004 20.7V20.9C18.9004 21 18.9004 21.1 19.0004 21.2C19.1004 21.2 19.2004 21.3 19.2004 21.3Z" fill="#305BA9"/>
<path d="M33.5008 1.5L33.3008 1.6C33.1008 1.6 33.0008 1.8 33.1008 2C33.1008 2.1 33.1008 2.1 33.2008 2.1C33.3008 2.2 33.4008 2.2 33.6008 2.2L33.8008 2.1C34.0008 2 34.1008 1.8 34.0008 1.7C33.8008 1.6 33.6008 1.5 33.5008 1.5Z" fill="#305BA9"/>
<path d="M20.6008 14C20.8008 14.1 21.0008 14 21.1008 13.8L21.2008 13.6C21.3008 13.4 21.2008 13.2 21.0008 13.1C20.8008 13 20.6008 13.1 20.5008 13.3L20.4008 13.5C20.3008 13.6 20.4008 13.8 20.5008 13.9C20.5008 14 20.6008 14 20.6008 14Z" fill="#305BA9"/>
<path d="M58.6004 30.4C58.4004 30.3 58.2004 30.4 58.1004 30.6L58.0004 30.7C57.9004 30.9 58.0004 31.1 58.2004 31.2C58.4004 31.3 58.6004 31.2 58.7004 31L58.8004 30.8C58.8004 30.7 58.7004 30.5 58.6004 30.4Z" fill="#305BA9"/>
<path d="M51.9001 38.2C51.8001 38.1 51.6001 38.1 51.5001 38.2L51.4001 38.3C51.2001 38.4 51.2001 38.6 51.3001 38.8C51.4001 39 51.6001 39 51.8001 38.9L52.0001 38.8C52.0001 38.6 52.1001 38.4 51.9001 38.2C51.9001 38.2 52.0001 38.2 51.9001 38.2Z" fill="#305BA9"/>
<path d="M48.0004 40.3C47.9004 40.2 47.8004 40.2 47.6004 40.2H47.5004H47.4004C47.2004 40.3 47.2004 40.5 47.2004 40.6C47.3004 40.8 47.5004 40.8 47.7004 40.8H47.8004C48.0004 40.7 48.1004 40.5 48.0004 40.3C48.1004 40.4 48.1004 40.4 48.0004 40.3Z" fill="#305BA9"/>
<path d="M57.0004 10C57.2004 9.9 57.2004 9.7 57.1004 9.5L57.0004 9.3C56.9004 9.2 56.7004 9.2 56.6004 9.3C56.4004 9.4 56.4004 9.6 56.5004 9.8L56.6004 9.9C56.6004 10 56.8004 10.1 57.0004 10Z" fill="#305BA9"/>
<path d="M52.0008 4.40001C51.8008 4.30001 51.6008 4.30001 51.5008 4.50001C51.4008 4.60001 51.4008 4.80001 51.5008 4.90001L51.7008 5.00001C51.9008 5.10001 52.1008 5.10001 52.2008 4.90001C52.3008 4.70001 52.3008 4.50001 52.1008 4.40001H52.0008Z" fill="#305BA9"/>
<path d="M50.7004 39C50.6004 38.9 50.4004 38.9 50.3004 38.9L50.1004 39C49.9004 39.1 49.9004 39.3 50.0004 39.5C50.1004 39.7 50.3004 39.7 50.5004 39.6L50.6004 39.5C50.8004 39.5 50.8004 39.2 50.7004 39C50.7004 39 50.7004 39.1 50.7004 39Z" fill="#305BA9"/>
<path d="M48.2004 2.3L48.0004 2.2C47.8004 2.1 47.6004 2.2 47.5004 2.4C47.4004 2.5 47.5004 2.7 47.6004 2.8L47.7004 2.9L47.9004 3C48.1004 3.1 48.3004 3 48.4004 2.8C48.5004 2.6 48.4004 2.4 48.2004 2.3Z" fill="#305BA9"/>
<path d="M49.4004 39.7C49.3004 39.6 49.1004 39.6 49.0004 39.6L48.8004 39.7C48.6004 39.8 48.6004 40 48.6004 40.2C48.7004 40.4 48.9004 40.4 49.1004 40.4L49.3004 40.3C49.5004 40.2 49.5004 40 49.4004 39.7C49.4004 39.7 49.4004 39.8 49.4004 39.7Z" fill="#305BA9"/>
<path d="M49.6008 2.9L49.4008 2.8C49.2008 2.7 49.0008 2.8 48.9008 2.9C48.8008 3 48.9008 3.2 49.0008 3.3C49.0008 3.3 49.1008 3.3 49.1008 3.4L49.3008 3.5C49.5008 3.6 49.7008 3.5 49.8008 3.4C49.8008 3.2 49.7008 3 49.6008 2.9Z" fill="#305BA9"/>
<path d="M50.9004 3.7L50.7004 3.6C50.5004 3.5 50.3004 3.6 50.2004 3.7C50.1004 3.8 50.1004 4 50.3004 4.1C50.3004 4.1 50.3004 4.1 50.4004 4.2L50.6004 4.3C50.8004 4.4 51.0004 4.4 51.1004 4.2C51.1004 4 51.0004 3.8 50.9004 3.7Z" fill="#305BA9"/>
<path d="M57.1004 32.9C56.9004 32.8 56.7004 32.8 56.6004 33L56.5004 33.1C56.4004 33.3 56.4004 33.5 56.6004 33.6C56.8004 33.7 57.0004 33.7 57.1004 33.5L57.2004 33.3C57.3004 33.3 57.3004 33.1 57.1004 32.9C57.1004 32.9 57.1004 33 57.1004 32.9Z" fill="#305BA9"/>
<path d="M60.0004 26.2C59.8004 26.2 59.6004 26.3 59.6004 26.5V26.7C59.6004 26.9 59.7004 27.1 59.8004 27.1C60.0004 27.1 60.2004 27 60.2004 26.9V26.7C60.2004 26.6 60.2004 26.5 60.1004 26.4C60.1004 26.2 60.1004 26.2 60.0004 26.2Z" fill="#305BA9"/>
<path d="M60.3004 24.7C60.1004 24.7 59.9004 24.8 59.9004 25V25.2C59.9004 25.4 60.0004 25.6 60.2004 25.6C60.4004 25.6 60.6004 25.5 60.6004 25.3V25.1C60.6004 25 60.6004 24.9 60.5004 24.8C60.4004 24.7 60.4004 24.7 60.3004 24.7Z" fill="#305BA9"/>
<path d="M60.5004 23.2C60.3004 23.2 60.1004 23.3 60.1004 23.5V23.7C60.1004 23.9 60.2004 24.1 60.4004 24.1C60.6004 24.1 60.8004 24 60.8004 23.8V23.6C60.8004 23.5 60.8004 23.4 60.7004 23.3C60.6004 23.3 60.5004 23.2 60.5004 23.2Z" fill="#305BA9"/>
<path d="M59.6008 27.6C59.4008 27.5 59.2008 27.6 59.2008 27.8L59.1008 28C59.0008 28.2 59.1008 28.4 59.3008 28.4C59.5008 28.5 59.7008 28.4 59.7008 28.2L59.8008 28C59.8008 27.9 59.8008 27.7 59.7008 27.6C59.7008 27.6 59.7008 27.6 59.6008 27.6Z" fill="#305BA9"/>
<path d="M57.9004 31.7C57.7004 31.6 57.5004 31.7 57.4004 31.8L57.3004 32C57.2004 32.2 57.3004 32.4 57.4004 32.5C57.6004 32.6 57.8004 32.5 57.9004 32.4L58.0004 32.2C58.1004 32 58.0004 31.8 57.9004 31.7Z" fill="#305BA9"/>
<path d="M60.8004 21.8C60.7004 21.7 60.7004 21.7 60.6004 21.7C60.4004 21.7 60.2004 21.8 60.2004 22V22.2C60.2004 22.4 60.3004 22.6 60.5004 22.6C60.7004 22.6 60.9004 22.5 60.9004 22.3V22.1C60.9004 22 60.8004 21.9 60.8004 21.8Z" fill="#305BA9"/>
<path d="M59.1004 29C58.9004 28.9 58.7004 29 58.6004 29.2L58.5004 29.4C58.4004 29.6 58.5004 29.8 58.7004 29.9C58.9004 30 59.1004 29.9 59.2004 29.7L59.3004 29.5C59.4004 29.4 59.3004 29.2 59.2004 29.1C59.2004 29 59.2004 29 59.1004 29Z" fill="#305BA9"/>
<path d="M40.5 41.8H40.3C40.1 41.8 40 42 40 42.2C40 42.4 40.2 42.5 40.4 42.5H40.6C40.8 42.5 40.9 42.3 40.9 42.1C40.9 42 40.9 41.9 40.8 41.9C40.7 41.8 40.6 41.8 40.5 41.8Z" fill="#305BA9"/>
<path d="M39.1 41.8H38.9C38.7 41.8 38.5 41.9 38.5 42.1C38.5 42.3 38.6 42.5 38.8 42.5H39C39.2 42.5 39.4 42.4 39.4 42.2C39.4 42.1 39.4 42 39.3 41.9C39.3 41.8 39.2 41.8 39.1 41.8Z" fill="#305BA9"/>
<path d="M34.8001 41.1H34.6001C34.4001 41 34.2001 41.2 34.2001 41.3C34.1001 41.5 34.3001 41.7 34.4001 41.7H34.6001C34.8001 41.7 35.0001 41.6 35.0001 41.5C35.0001 41.4 35.0001 41.2 34.9001 41.2L34.8001 41.1Z" fill="#305BA9"/>
<path d="M37.6 41.6H37.4C37.2 41.6 37 41.7 37 41.9C37 42.1 37.1 42.3 37.3 42.3H37.5C37.7 42.3 37.9 42.2 37.9 42C37.9 41.9 37.9 41.8 37.8 41.7C37.8 41.7 37.7 41.7 37.6 41.6Z" fill="#305BA9"/>
<path d="M39.4004 0.5H39.2004C39.0004 0.5 38.9004 0.7 38.9004 0.9C38.9004 1 38.9004 1.1 39.0004 1.1C39.1004 1.2 39.2004 1.2 39.3004 1.2H39.5004C39.7004 1.2 39.8004 1 39.8004 0.8C39.7004 0.7 39.6004 0.5 39.4004 0.5Z" fill="#305BA9"/>
<path d="M37.9004 0.6H37.7004C37.5004 0.6 37.4004 0.8 37.4004 1C37.4004 1.1 37.4004 1.2 37.5004 1.2C37.6004 1.3 37.7004 1.3 37.8004 1.3H38.0004C38.2004 1.3 38.3004 1.1 38.3004 0.9C38.3004 0.7 38.1004 0.6 37.9004 0.6Z" fill="#305BA9"/>
<path d="M36.4004 0.799999H36.2004C36.0004 0.799999 35.9004 0.999999 35.9004 1.2C35.9004 1.3 35.9004 1.3 36.0004 1.4C36.1004 1.5 36.2004 1.5 36.3004 1.5H36.5004C36.7004 1.5 36.8004 1.3 36.8004 1.1C36.8004 0.899999 36.6004 0.799999 36.4004 0.799999Z" fill="#305BA9"/>
<path d="M34.9004 1.1H34.7004C34.5004 1.1 34.4004 1.3 34.4004 1.5C34.4004 1.6 34.4004 1.6 34.5004 1.7C34.6004 1.8 34.7004 1.8 34.8004 1.8H35.0004C35.2004 1.8 35.3004 1.6 35.3004 1.4C35.3004 1.2 35.1004 1.1 34.9004 1.1Z" fill="#305BA9"/>
<path d="M36.2004 41.4H36.0004C35.8004 41.4 35.6004 41.5 35.6004 41.7C35.6004 41.9 35.7004 42.1 35.9004 42.1H36.1004C36.3004 42.1 36.5004 42 36.5004 41.8C36.5004 41.7 36.5004 41.6 36.4004 41.5C36.3004 41.5 36.3004 41.4 36.2004 41.4Z" fill="#305BA9"/>
<path d="M42.4008 0.700012H42.2008C42.0008 0.700012 41.8008 0.800012 41.8008 1.00001C41.8008 1.10001 41.8008 1.20001 41.9008 1.30001C42.0008 1.40001 42.0008 1.40001 42.1008 1.40001H42.3008C42.5008 1.40001 42.7008 1.30001 42.7008 1.10001C42.7008 0.900012 42.6008 0.700012 42.4008 0.700012Z" fill="#305BA9"/>
<path d="M43.9008 0.899994H43.7008C43.5008 0.899994 43.3008 0.999994 43.3008 1.19999C43.3008 1.29999 43.3008 1.39999 43.4008 1.49999C43.4008 1.49999 43.5008 1.59999 43.6008 1.59999H43.8008C44.0008 1.59999 44.2008 1.49999 44.2008 1.29999C44.2008 1.09999 44.1008 0.999994 43.9008 0.899994Z" fill="#305BA9"/>
<path d="M45.4008 1.29999H45.2008C45.0008 1.29999 44.8008 1.39999 44.8008 1.49999C44.8008 1.59999 44.8008 1.79999 44.9008 1.79999C44.9008 1.79999 45.0008 1.89999 45.1008 1.89999H45.3008C45.5008 1.99999 45.7008 1.79999 45.7008 1.69999C45.7008 1.49999 45.6008 1.29999 45.4008 1.29999Z" fill="#305BA9"/>
<path d="M45.2004 41.3C45.1004 41.2 45.0004 41.2 44.9004 41.2H44.7004C44.5004 41.2 44.4004 41.4 44.4004 41.6C44.4004 41.8 44.6004 41.9 44.8004 41.9H45.0004C45.2004 41.9 45.3004 41.7 45.3004 41.5C45.3004 41.4 45.2004 41.3 45.2004 41.3Z" fill="#305BA9"/>
<path d="M46.6 40.9C46.5 40.8 46.4 40.8 46.2 40.8L46 40.9C45.8 41 45.7 41.2 45.8 41.3C45.9 41.5 46.1 41.6 46.2 41.5L46.4 41.4C46.6 41.3 46.7 41.1 46.6 41C46.7 40.9 46.7 40.9 46.6 40.9Z" fill="#305BA9"/>
<path d="M46.8004 1.7L46.6004 1.6C46.4004 1.5 46.2004 1.6 46.2004 1.8C46.2004 1.9 46.2004 2.1 46.3004 2.2L46.4004 2.3L46.6004 2.4C46.8004 2.5 47.0004 2.4 47.0004 2.2C47.1004 2 47.0004 1.8 46.8004 1.7Z" fill="#305BA9"/>
<path d="M42 41.7H41.8C41.6 41.7 41.5 41.9 41.5 42.1C41.5 42.3 41.7 42.4 41.9 42.4H42.1C42.3 42.4 42.4 42.2 42.4 42C42.4 41.9 42.4 41.8 42.3 41.8C42.2 41.7 42.1 41.7 42 41.7Z" fill="#305BA9"/>
<path d="M40.9008 0.600006H40.7008C40.5008 0.600006 40.3008 0.700006 40.3008 0.900006C40.3008 1.00001 40.3008 1.10001 40.4008 1.20001C40.5008 1.30001 40.5008 1.30001 40.6008 1.30001H40.8008C41.0008 1.30001 41.2008 1.20001 41.2008 1.00001C41.2008 0.800006 41.1008 0.600006 40.9008 0.600006Z" fill="#305BA9"/>
<path d="M43.4004 41.5H43.2004C43.0004 41.5 42.9004 41.7 42.9004 41.9C42.9004 42.1 43.1004 42.2 43.3004 42.2H43.5004C43.7004 42.2 43.8004 42 43.8004 41.8C43.8004 41.7 43.8004 41.7 43.7004 41.6C43.7004 41.5 43.6004 41.5 43.4004 41.5Z" fill="#305BA9"/>
<path d="M39.8008 4.89999C36.0008 4.89999 32.5008 6.19999 29.7008 8.39999C29.8008 8.49999 29.9008 8.59999 30.1008 8.79999C26.3008 11.7 23.8008 16.3 23.8008 21.4C23.8008 27.4 27.1008 32.6 32.1008 35.4C32.0008 35.5 31.9008 35.7 31.8008 35.8C34.2008 37.1 36.9008 37.9 39.8008 37.9C48.9008 37.9 56.3008 30.5 56.3008 21.4C56.3008 12.3 48.8008 4.89999 39.8008 4.89999ZM24.1008 21.4C24.1008 16.3 26.5008 11.8 30.3008 8.99999C30.4008 9.09999 30.5008 9.19999 30.7008 9.39999C33.2008 7.49999 36.4008 6.29999 39.8008 6.29999C48.1008 6.29999 54.9008 13.1 54.9008 21.4C54.9008 29.7 48.1008 36.5 39.8008 36.5C37.2008 36.5 34.8008 35.8 32.6008 34.7C32.5008 34.8 32.4008 35 32.3008 35.1C27.4008 32.4 24.1008 27.3 24.1008 21.4Z" fill="#305BA9"/>
<path d="M52.9 19.3C51.9 12.9 46.4 8 39.8 8C32.5 8 26.5 14 26.5 21.3C26.5 28.6 32.5 34.6 39.8 34.6C40.8 34.6 41.8 34.5 42.8 34.3C48.7 32.9 53.2 27.6 53.2 21.3C53.1 20.6 53 20 52.9 19.3ZM51.7 21.4C51.7 27.2 47.6 32 42.1 33.1C41.3 33.3 40.5 33.3 39.7 33.3C33.1 33.3 27.7 27.9 27.7 21.3C27.7 14.7 33.1 9.3 39.7 9.3C45.6 9.3 50.5 13.6 51.5 19.1C51.6 19.9 51.7 20.6 51.7 21.4Z" fill="#305BA9"/>
<path d="M49.4 21.4C49.4 16.1 45.1 11.7 39.7 11.7C34.4 11.7 30 16 30 21.4C30 21.7 30 22 30 22.3C29.8 22.3 29.7 22.3 29.5 22.3C29.9 27.5 34.3 31.6 39.6 31.6C42.2 31.6 44.6 30.6 46.4 28.9C46.3 28.8 46.1 28.7 46 28.6C48.2 26.8 49.4 24.2 49.4 21.4ZM30.4 21.4C30.4 16.3 34.6 12.1 39.7 12.1C44.8 12.1 49 16.3 49 21.4C49 24.2 47.8 26.6 45.9 28.4C45.8 28.3 45.6 28.2 45.5 28.1C43.9 29.5 41.9 30.3 39.7 30.3C35.2 30.3 31.4 26.8 30.9 22.4C30.7 22.4 30.6 22.4 30.4 22.4C30.4 22 30.4 21.7 30.4 21.4Z" fill="#305BA9"/>
</svg>
