<svg width="48" height="48" viewBox="0 0 48 48" fill="none" xmlns="http://www.w3.org/2000/svg">
<path d="M40.8205 11.78L32.8205 8.18H31.1805L24.0005 11.4L16.8205 8.18H16.7205L16.4805 8H15.2805L7.28048 11.6C6.88146 11.7529 6.5419 12.0296 6.31155 12.3895C6.08121 12.7494 5.97219 13.1736 6.00048 13.6V38C6.00104 38.3346 6.08556 38.6638 6.24629 38.9573C6.40702 39.2508 6.63883 39.4993 6.92048 39.68C7.24239 39.8879 7.61726 39.999 8.00048 40C8.28347 39.9987 8.56296 39.9373 8.82048 39.82L16.0005 36.6L23.1805 39.82H23.2805C23.5059 39.9254 23.7517 39.98 24.0005 39.98C24.2493 39.98 24.4951 39.9254 24.7205 39.82H24.8205L32.0005 36.6L39.1805 39.82C39.438 39.9373 39.7175 39.9987 40.0005 40C40.3837 39.999 40.7586 39.8879 41.0805 39.68C41.3621 39.4993 41.5939 39.2508 41.7547 38.9573C41.9154 38.6638 41.9999 38.3346 42.0005 38V13.6C41.9997 13.2153 41.8879 12.839 41.6786 12.5161C41.4693 12.1933 41.1714 11.9377 40.8205 11.78ZM10.0005 14.88L14.0005 13.1V33.1L10.0005 34.88V14.88ZM18.0005 13.1L22.0005 14.88V34.88L18.0005 33.1V13.1ZM26.0005 14.88L30.0005 13.1V33.1L26.0005 34.88V14.88ZM38.0005 34.88L34.0005 33.1V13.1L38.0005 14.88V34.88Z" fill="#FF8007"/>
</svg>
