<svg width="48" height="48" viewBox="0 0 48 48" fill="none" xmlns="http://www.w3.org/2000/svg">
<path d="M34.8 44.0002C26.6346 43.9896 18.8066 40.7413 13.0328 34.9674C7.25897 29.1936 4.01058 21.3656 4 13.2002C4 10.7602 4.96928 8.42018 6.69462 6.69485C8.41995 4.96951 10.76 4.00023 13.2 4.00023C13.7167 3.99629 14.2325 4.04319 14.74 4.14023C15.2306 4.21283 15.7129 4.33341 16.18 4.50023C16.5085 4.61549 16.8012 4.8145 17.0292 5.07757C17.2572 5.34065 17.4126 5.65869 17.48 6.00023L20.22 18.0002C20.2939 18.326 20.285 18.665 20.1941 18.9864C20.1033 19.3078 19.9334 19.6013 19.7 19.8402C19.44 20.1202 19.42 20.1402 16.96 21.4202C18.93 25.7419 22.3864 29.2125 26.7 31.2002C28 28.7202 28.02 28.7002 28.3 28.4402C28.5389 28.2068 28.8324 28.0369 29.1538 27.9461C29.4752 27.8553 29.8143 27.8464 30.14 27.9202L42.14 30.6602C42.4706 30.7369 42.7763 30.8965 43.0282 31.1239C43.2801 31.3514 43.47 31.6392 43.58 31.9602C43.7488 32.4349 43.8759 32.9235 43.96 33.4202C44.0405 33.9229 44.0806 34.4312 44.08 34.9402C44.0431 37.3698 43.0466 39.6861 41.3079 41.3835C39.5693 43.081 37.2297 44.0216 34.8 44.0002ZM13.2 8.00023C11.8225 8.0055 10.5029 8.55504 9.52886 9.52909C8.55482 10.5031 8.00527 11.8227 8 13.2002C8.0053 20.3064 10.8306 27.12 15.8554 32.1448C20.8802 37.1697 27.6938 39.9949 34.8 40.0002C36.1775 39.995 37.4971 39.4454 38.4711 38.4714C39.4452 37.4973 39.9947 36.1777 40 34.8002V34.1402L30.72 32.0002L30.14 33.1002C29.24 34.8402 28.58 36.1002 26.9 35.4202C23.5858 34.234 20.5774 32.3243 18.0935 29.83C15.6095 27.3357 13.7124 24.3194 12.54 21.0002C11.82 19.4402 13.18 18.7202 14.9 17.8202L16 17.2802L13.86 8.00023H13.2Z" fill="#FF8007"/>
</svg>
